<svg xmlns="http://www.w3.org/2000/svg" viewBox="0 0 799.92 799.92"><defs><style>.cls-1{fill:#f0f8ff;}.cls-2{fill:#e3f2ff;}.cls-3{fill:#c5dcf0;}.cls-10,.cls-11,.cls-12,.cls-13,.cls-14,.cls-15,.cls-16,.cls-17,.cls-18,.cls-19,.cls-20,.cls-22,.cls-23,.cls-24,.cls-25,.cls-26,.cls-27,.cls-29,.cls-3,.cls-30,.cls-32,.cls-33,.cls-34,.cls-35,.cls-36,.cls-37,.cls-38,.cls-39,.cls-4,.cls-41,.cls-42,.cls-43,.cls-45,.cls-47,.cls-48,.cls-49,.cls-50,.cls-53,.cls-54,.cls-56,.cls-57,.cls-58,.cls-59,.cls-6,.cls-61,.cls-62,.cls-63,.cls-64,.cls-65,.cls-66,.cls-7,.cls-8,.cls-9{fill-rule:evenodd;}.cls-4,.cls-55{fill:#fff;}.cls-5{fill:#91bbde;}.cls-6{fill:#315c80;}.cls-44,.cls-7{fill:#52baac;}.cls-8{fill:#84e0d4;}.cls-31,.cls-51,.cls-52,.cls-9{fill:#666;}.cls-10{fill:#79a5c9;}.cls-11{fill:#454545;}.cls-12{fill:#18364f;}.cls-13{fill:#ffa200;}.cls-14{fill:#d18604;}.cls-15,.cls-28,.cls-46,.cls-47{fill:#379e90;}.cls-16,.cls-40{fill:#f24660;}.cls-17{fill:#753c20;}.cls-18{fill:#f2ac71;}.cls-19{fill:#cc8c58;}.cls-20{fill:#f49b74;}.cls-21,.cls-22{fill:none;stroke:#f24660;stroke-width:2.4px;}.cls-21,.cls-22,.cls-46,.cls-47,.cls-50,.cls-66{stroke-miterlimit:22.93;}.cls-23{fill:#4e2700;}.cls-24{fill:#381c00;}.cls-25{fill:#542c03;}.cls-26{fill:#914c2a;}.cls-27{fill:gray;}.cls-29{fill:#dcceb1;}.cls-30{fill:#baab8e;}.cls-32{fill:#c4f5ee;}.cls-33{fill:#a6e6dc;}.cls-34{fill:#c98664;}.cls-35{fill:#e8dec7;}.cls-36{fill:#fcb623;}.cls-37{fill:#ffda85;}.cls-38{fill:#fff1d4;}.cls-39{fill:#ffb200;}.cls-41{fill:#58d2d3;}.cls-42{fill:#8f4c00;}.cls-43{fill:#ff9f00;}.cls-45{fill:#fab4bf;}.cls-46,.cls-47{stroke:#379e90;stroke-width:0.96px;}.cls-48{fill:#cc2941;}.cls-49{fill:#7dd4c8;}.cls-50{fill:#a9d3f5;stroke:#7dd4c8;stroke-width:0.22px;}.cls-51{font-size:43.52px;}.cls-51,.cls-52{font-family:ArialMT, Arial;}.cls-52{font-size:41.9px;}.cls-53{fill:#ffbd4c;}.cls-54{fill:#5c3f25;}.cls-56{fill:#ffd599;}.cls-57{fill:#d9fff8;}.cls-58,.cls-60{fill:#c93047;}.cls-59{fill:#ccc;}.cls-61{fill:#bd283e;}.cls-62{fill:#96653c;}.cls-63{fill:#5e3d22;}.cls-64{fill:#fe7970;}.cls-65,.cls-66{fill:#222a2b;}.cls-66{stroke:#000;stroke-width:0.57px;}</style></defs><title>login</title><g id="Background"><rect class="cls-1" width="799.92" height="799.92"/><rect class="cls-2" y="476.06" width="799.92" height="323.86"/><rect class="cls-2" x="314.57" y="453.56" width="170.3" height="71.88"/><polygon class="cls-3" points="208.15 601.54 146.31 702.73 395.75 719.96 401.22 614.73 208.15 601.54"/><polygon class="cls-4" points="413.72 522.93 799.92 419.28 799.92 488.98 413.72 522.93"/><polygon class="cls-4" points="413.72 522.93 0 486.9 0 412.25 413.72 522.93"/><polygon class="cls-4" points="413.72 522.93 0 330.2 0 233.48 413.72 522.93"/><polygon class="cls-4" points="413.72 522.93 0 109.52 0 0 47.27 0 413.72 522.93"/><polygon class="cls-4" points="413.72 522.93 169.64 0 273.39 0 413.72 522.93"/><polygon class="cls-4" points="413.72 522.93 367.77 0 459.28 0 413.72 522.93"/><polygon class="cls-4" points="413.72 522.93 553.63 0 657.34 0 413.72 522.93"/><polygon class="cls-4" points="413.72 522.93 779.6 0 799.92 0 799.92 136.45 413.72 522.93"/><polygon class="cls-4" points="413.72 522.93 799.92 252.31 799.92 342.68 413.72 522.93"/><polygon class="cls-3" points="594.29 601.54 656.14 702.73 406.69 719.96 401.22 614.73 594.29 601.54"/></g><g id="Objects"><rect class="cls-5" x="334.06" y="534.16" width="120.84" height="84.06"/><path class="cls-6" d="M328.34,414.29c-13.83,6.92-8.57,19-19.69,30.87S273,492.63,278,516.3s46.65,18.61,51.84-7.56,12.94-48.47,23.27-56.42S364.63,447.56,359,439,343.25,406.83,328.34,414.29Z" transform="translate(0)"/><path class="cls-7" d="M340.78,400.62c3.15-6.43,14-27.65,15.57-34.59s7.31-14.55,14.84-13.86,11.48-1.73,13.59,2.8-.52,5.94,1,11.62-6.49,18.32-11.22,24.64-5.64,19.21-2.72,28.39c4.76,15-3.36,25.48-17.07,23.32-13.53-2.14-22.35-15.82-20-30.65C335.42,408.38,338.87,404.52,340.78,400.62Z" transform="translate(0)"/><path class="cls-8" d="M371.83,419.59v0a30.22,30.22,0,0,1,1.08,4.53c-7.08,1.07-15.08,1.19-22.14-1.68-5.32-2.16-11-7.64-14.36-13.89a20.82,20.82,0,0,1,3.12-5.19c2.75,8.07,7.51,12.52,13,14.76C358.54,420.59,365.52,420.51,371.83,419.59Z" transform="translate(0)"/><path class="cls-8" d="M342.31,397.54l2.38-4.8c5.35,8.29,11.15,12.24,17,13.8a28.44,28.44,0,0,0,8.46.84,40.34,40.34,0,0,0,.18,4.67,32.77,32.77,0,0,1-9.84-1C354.17,409.37,348,405.42,342.31,397.54Z" transform="translate(0)"/><path class="cls-8" d="M346.46,389.14l2.14-4.43c6.13,6,11.84,9.05,17.1,10.34a28.56,28.56,0,0,0,6.42.83,29.15,29.15,0,0,0-1.26,4.64,33.46,33.46,0,0,1-6.29-.93C358.91,398.2,352.85,395.12,346.46,389.14Z" transform="translate(0)"/><path class="cls-8" d="M351,379.49c.7-1.53,1.37-3,2-4.45,8.69,7.07,18,8.21,26.8,8.37-1,1.62-2,3.18-3,4.59C368.4,387.63,359.52,386.05,351,379.49Z" transform="translate(0)"/><path class="cls-9" d="M416.65,450.09c-11.12,10.74-2.48,20.74-9.55,35.34s-19.85,56-8,77.07,50.07,3.81,47.2-22.72-2.15-50.12,5.34-60.8,9.61-8,1.67-14.44S428.65,438.51,416.65,450.09Z" transform="translate(0)"/><path class="cls-7" d="M424.44,433.32c1.08-7.08,5.1-30.57,4.5-37.66s2.63-16.06,10-17.66,10.44-5.08,13.81-1.4,1.28,5.82,4.43,10.79-.72,19.43-3.34,26.87.37,20,5.9,27.9c9,12.88,4.41,25.32-9.32,27.36-13.55,2-26.05-8.41-28.23-23.28C421.64,442.33,423.78,437.61,424.44,433.32Z" transform="translate(0)"/><path class="cls-8" d="M459.74,442.14l0,0a29.7,29.7,0,0,1,2.38,4c-6.43,3.13-14,5.64-21.63,5-5.72-.47-12.81-4-17.86-8.95a21.17,21.17,0,0,1,1.43-5.89c5,6.87,10.91,9.7,16.83,10.19C447.36,447.06,454,444.9,459.74,442.14Z" transform="translate(0)"/><path class="cls-8" d="M425,429.92c.24-1.54.53-3.33.84-5.28,7.58,6.3,14.3,8.34,20.38,8.07a28.44,28.44,0,0,0,8.32-1.73,42,42,0,0,0,1.57,4.41,33.15,33.15,0,0,1-9.69,2C439.83,437.67,432.73,435.75,425,429.92Z" transform="translate(0)"/><path class="cls-8" d="M426.42,420.67c.24-1.59.48-3.22.72-4.87,7.66,3.93,14,5.1,19.41,4.76a29.32,29.32,0,0,0,6.38-1.13,29.18,29.18,0,0,0,.18,4.81,33.93,33.93,0,0,1-6.28,1C441,425.59,434.31,424.47,426.42,420.67Z" transform="translate(0)"/><path class="cls-8" d="M427.91,410.09c.21-1.67.4-3.29.56-4.83,10.41,4.14,19.66,2.43,28.08,0-.45,1.83-.95,3.62-1.45,5.26C446.91,412.67,438,413.81,427.91,410.09Z" transform="translate(0)"/><path class="cls-9" d="M446.9,441.58c14.65,4.94,11.12,17.68,23.76,27.85s41.89,42.08,40.23,66.22-43.62,24.87-52.38-.33S439,489.1,427.67,482.65s-12.11-3.11-7.7-12.34S431.1,436.25,446.9,441.58Z" transform="translate(0)"/><path class="cls-6" d="M432.69,429.75c-4-5.93-17.7-25.45-20.2-32.11s-9.24-13.39-16.61-11.67-11.61-.12-13.08,4.65,1.34,5.81.62,11.64,9,17.26,14.52,22.86,8.23,18.25,6.61,27.74c-2.65,15.5,6.85,24.77,20.13,20.74,13.1-4,19.95-18.76,15.55-33.12C439.07,436.7,435.12,433.35,432.69,429.75Z" transform="translate(0)"/><path class="cls-10" d="M385.59,409.47c8.48-1.82,19-4.27,26.35-13.15-2.84-6.19-9.19-12-16.06-10.35-7.36,1.72-11.61-.12-13.08,4.65s1.34,5.81.62,11.64C383.18,404.19,384.08,406.73,385.59,409.47Z" transform="translate(0)"/><path class="cls-10" d="M404.86,450.5c8.66.77,23.18,6.9,29,17.7a22.55,22.55,0,0,1-9.17,5.4c-13.28,4-22.78-5.24-20.13-20.74C404.68,452.09,404.78,451.3,404.86,450.5Z" transform="translate(0)"/><path class="cls-9" d="M509.9,510.39c-5.26,15.74-56.06,56.32-79,62.39s-45.68-16.8-26.81-34.85c25-23.92,50-44.21,63.9-50.47S517,489.12,509.9,510.39Z" transform="translate(0)"/><path class="cls-11" d="M402.57,537.69c12.24-7.4,31.11-4.44,41.21,3.76S429,504.37,402.57,537.69Z" transform="translate(0)"/><path class="cls-12" d="M463.41,533.48c-12.25-7.39-31.12-4.44-41.21,3.77S437,500.17,463.41,533.48Z" transform="translate(0)"/><path class="cls-13" d="M363.79,430.9c12.21,9.49,4.68,20.36,13.28,34.12s25.69,53.53,16.18,75.78-49.38,9.12-49.35-17.56-3.21-50.06-11.79-59.89-10.41-6.92-3.21-14.18S350.63,420.67,363.79,430.9Z" transform="translate(0)"/><path class="cls-7" d="M354.27,415.06c-1.83-6.93-8.34-29.86-8.5-37s-4.33-15.69-11.85-16.49-10.92-3.94-13.88.08-.65,5.93-3.25,11.2,2.79,19.24,6.19,26.36,1.77,19.94-2.89,28.37c-7.6,13.77-1.69,25.65,12.18,26.21,13.69.55,25-11.14,25.58-26.15C358,423.72,355.38,419.25,354.27,415.06Z" transform="translate(0)"/><path class="cls-8" d="M320.1,427.59v0a29.86,29.86,0,0,0-1.94,4.24c6.73,2.43,14.55,4.12,22,2.68,5.63-1.08,12.31-5.33,16.8-10.81a20.82,20.82,0,0,0-2.05-5.7c-4.27,7.37-9.81,10.81-15.64,11.93C332.94,431.17,326.11,429.72,320.1,427.59Z" transform="translate(0)"/><path class="cls-8" d="M353.37,411.74c-.41-1.51-.88-3.26-1.39-5.17-6.87,7.08-13.33,9.82-19.41,10.2a28.54,28.54,0,0,1-8.45-.83c-.29,1.53-.65,3.06-1.09,4.55a33.13,33.13,0,0,0,9.84.94C339.42,421,346.28,418.36,353.37,411.74Z" transform="translate(0)"/><path class="cls-8" d="M351,402.69c-.41-1.55-.83-3.15-1.24-4.77-7.2,4.73-13.38,6.57-18.79,6.81a29.52,29.52,0,0,1-6.46-.44,30.72,30.72,0,0,1,.33,4.79,33.54,33.54,0,0,0,6.34.32C337,409.14,343.51,407.31,351,402.69Z" transform="translate(0)"/><path class="cls-8" d="M348.34,392.33c-.39-1.64-.75-3.23-1.08-4.75-9.9,5.23-19.29,4.52-27.92,3,.64,1.78,1.33,3.5,2,5.08C329.72,396.92,338.74,397.1,348.34,392.33Z" transform="translate(0)"/><path class="cls-13" d="M282.2,510.31c5.27,15.27,56.06,51.36,79,55.4,16.9,3,33.65-9.7,33.83-23.13.06-4.83,3.55-19.79-1.44-24.12-25-21.71-55.62-29.75-69.48-34.79S275.1,489.67,282.2,510.31Z" transform="translate(0)"/><path class="cls-14" d="M323.89,533.48c12.25-7.39,31.12-4.44,41.21,3.77S350.27,500.17,323.89,533.48Z" transform="translate(0)"/><path class="cls-7" d="M183.36,526.21c-.69-10-7.07-55,18.47-55.87s21.21,18,23.26,26.46S203.65,550.38,183.36,526.21Z" transform="translate(0)"/><path class="cls-7" d="M348.79,526.21c.68-10,7.07-55-18.47-55.87s-21.21,18-23.26,26.46S328.49,550.38,348.79,526.21Z" transform="translate(0)"/><path class="cls-15" d="M265.7,444.93c35.3,0,64.58,42.89,64.58,65.68s-26.35,62.21-61.65,62.21-66.18-39.43-66.18-62.21S230.4,444.93,265.7,444.93Z" transform="translate(0)"/><path class="cls-16" d="M504.89,551.87c35.2,0,63.92-18.54,63.92-41.26s-28.72-41.27-63.92-41.27S441,487.88,441,510.61,469.69,551.87,504.89,551.87Z" transform="translate(0)"/><path class="cls-17" d="M501.53,317.06c82.78,0,122.22,113.37,65.57,170.72-25.56-6.95-54.47-16.65-133.73-.52C376.72,429.92,418.74,317.06,501.53,317.06Z" transform="translate(0)"/><path class="cls-16" d="M421.89,526.21c-.69-10-7.07-55,18.47-55.87s21.2,18,23.26,26.46S442.18,550.38,421.89,526.21Z" transform="translate(0)"/><path class="cls-16" d="M439.44,559.05c12.56,0,22.81-9.89,22.81-22S452,515,439.44,515s-22.8,9.88-22.8,22S426.88,559.05,439.44,559.05Z" transform="translate(0)"/><path class="cls-18" d="M580.38,398.49c-7-1.86-14.92,4.91-17.77,15.13s.48,20,7.44,21.87,14.92-4.91,17.78-15.13S587.35,400.35,580.38,398.49Z" transform="translate(0)"/><path class="cls-18" d="M420.8,398.49c6.85-1.86,15.23,4.91,18.74,15.13s.79,20-6.06,21.87-15.23-4.91-18.73-15.13S414,400.35,420.8,398.49Z" transform="translate(0)"/><path class="cls-18" d="M503.35,496.43c14.11,0,40.36-9.61,56.16-29.47s20.2-62.47,16.9-83.89-30.69-61.34-78.26-61.34-72.42,39.92-74.36,61.34,9.92,63.35,22.14,80.42S489.24,496.43,503.35,496.43Z" transform="translate(0)"/><path class="cls-17" d="M523,399.54c6-.85,9-4.05,18.52-2,6.42,1.36,9.52-.25,1.73-2.71a47,47,0,0,0-20.61-1.66C516.3,393.93,517.7,400.29,523,399.54Z" transform="translate(0)"/><path class="cls-19" d="M500,447.77c12.48-1.67,9.93-9.8,9.8-17.43C513.84,439.79,517.55,448.45,500,447.77Z" transform="translate(0)"/><path class="cls-17" d="M483,399.26c-6-.84-13.3-2.4-19.72-1.48s-8.45-.53-.81-3A46.24,46.24,0,0,1,483,393.13C489.39,393.93,488.38,400,483,399.26Z" transform="translate(0)"/><path class="cls-20" d="M538,433.33c8.18,1.61,14.16,6.15,13.36,10.16s-8.08,6-16.26,4.36-14.16-6.16-13.36-10.17S529.86,431.73,538,433.33Z" transform="translate(0)"/><path class="cls-20" d="M468.52,433.33c-8.08,1.61-13.77,6.15-12.71,10.16s8.45,6,16.53,4.36,13.77-6.16,12.71-10.17S476.6,431.73,468.52,433.33Z" transform="translate(0)"/><line class="cls-21" x1="546.72" y1="423.2" x2="566.3" y2="405"/><path class="cls-22" d="M471,406.67a17.22,17.22,0,0,0-17.33,17.9,18.59,18.59,0,0,0,18.46,17.89,17.22,17.22,0,0,0,17.33-17.89A18.59,18.59,0,0,0,471,406.67Z" transform="translate(0)"/><path class="cls-22" d="M528.86,406.67a17.22,17.22,0,0,0-17.33,17.9A18.59,18.59,0,0,0,530,442.46a17.22,17.22,0,0,0,17.33-17.89A18.59,18.59,0,0,0,528.86,406.67Z" transform="translate(0)"/><path class="cls-22" d="M512,428.75c-1.14-4.79-6-8.42-11.67-8.42S490,424,489.15,428.74" transform="translate(0)"/><line class="cls-21" x1="453.88" y1="422.18" x2="435.57" y2="405"/><path class="cls-17" d="M444.1,385c-5.7,16.12-7.84,34.31-7.38,40.25S417.24,408,420.44,388.78,451.41,365.79,444.1,385Z" transform="translate(0)"/><path class="cls-17" d="M555,383.39c4.11,11.88,11.55,33.26,11.09,39.19s17.36-14.61,14.16-33.8S547.68,364.2,555,383.39Z" transform="translate(0)"/><path class="cls-17" d="M420.12,389c6.3.53,15.45.87,26.28,1,4.19-17.81,16.15-30.86,20.72-35.3-7.34,13.81-11.23,25.81-11.5,35.4,13.18.08,28.11-.05,43.11-.37a312.16,312.16,0,0,1,3.56-38c2,7.43,2.79,22.2,3.42,37.85,11.25-.29,22.39-.68,32.71-1.16-1-8.94-4.81-19.8-11.21-32.17,4.17,4.27,14.5,16,19.45,31.75,13.62-.75,25.29-1.67,33.08-2.74-4.73-23.69-24.06-62.87-80.26-64.11S420.19,359.79,420.12,389Z" transform="translate(0)"/><path class="cls-18" d="M186.28,398.49c6.91-1.86,15.08,4.91,18.26,15.13s.15,20-6.75,21.87-15.08-4.91-18.26-15.13S179.38,400.35,186.28,398.49Z" transform="translate(0)"/><path class="cls-18" d="M345.86,398.49c-6.9-1.86-15.07,4.91-18.25,15.13s-.16,20,6.75,21.87,15.08-4.91,18.25-15.13S352.77,400.35,345.86,398.49Z" transform="translate(0)"/><path class="cls-18" d="M267.12,499.9c-14.11,0-53.73-19.34-64.71-32.94s-15.26-62.47-12.65-83.89,28.75-61.34,76.31-61.34,73.7,39.92,76.31,61.34-1.65,70.29-12.64,83.89S281.23,499.9,267.12,499.9Z" transform="translate(0)"/><path class="cls-20" d="M232.64,433.21c-6.41,1.27-11,4.86-10.28,8s6.52,4.7,12.93,3.44,11-4.86,10.29-8S239.06,432,232.64,433.21Z" transform="translate(0)"/><path class="cls-23" d="M287.47,400.29c6-.27,13.72-1.65,20-.12s8.23-.29.78-3.48a46.83,46.83,0,0,0-20.3-3.61C281.6,393.28,282.11,400.54,287.47,400.29Z" transform="translate(0)"/><path class="cls-19" d="M268.26,447.77c-12.53-1.67-10.24-9.8-10.35-17.43C254.13,439.79,250.7,448.45,268.26,447.77Z" transform="translate(0)"/><path class="cls-24" d="M189,414.13c-3.43-18.19-11.06-54.15-2.67-58.35s16.78-6.29,11.19-13.29,9.78-30.76,37.75-30.76,69.23,14.68,88.11,19.58,17.77,3.49,23.37.7-8.39,18.18,1.39,18.18,1.61,15.21-2.71,47.58-9,37.53-12,3.74c-3.92-43.87-8.2-40.1-27.65-28.85-24.57,14.2-35.83,14.65-72.73-.5-31.63-13-31.12,15.11-33.25,40.08S191.83,429.12,189,414.13Z" transform="translate(0)"/><path class="cls-23" d="M243.56,400.29c-6-.27-13.72-1.65-20.05-.12s-8.23-.29-.78-3.48a46.83,46.83,0,0,1,20.3-3.61C249.44,393.28,248.93,400.54,243.56,400.29Z" transform="translate(0)"/><path class="cls-25" d="M220.67,325.54c17.27-11.55,59-1.62,83,9.12s43,1.53,31,10.33c-9.27,6.8,10.42,11.81,8.65,26.3-2.42,19.84-7,.27-9.17-6.25-3.72-11.16-19.29-16.14-33.93-6-20.46,14.13-64.3,3.28-74.22-2.51s-21.15,4.08-25.61,11.79c-5.81,10-7.05,16.78-9.36,7.82-3.76-14.62,6.34-16.68,13.71-24.46C213.48,342.4,204.52,336.33,220.67,325.54Z" transform="translate(0)"/><path class="cls-20" d="M309.92,428.3c6.5-.76,12,1.24,12.26,4.48s-4.77,6.47-11.26,7.24-12-1.24-12.26-4.47S303.43,429.07,309.92,428.3Z" transform="translate(0)"/><path class="cls-19" d="M445.21,462.34c3.75-2.17,11.84-.59,16.58,4.74a21.68,21.68,0,0,1,5.33,11.05s7.3,3.36,6.71,8.49S441.65,473.4,445.21,462.34Z" transform="translate(0)"/><path class="cls-18" d="M465.06,479.68c16.88,6.9,14.36,24.33,2.06,53.69s-23.92,26-36.19,19.14c-9.18-7.63-5.53-22.5.69-28.72S456.73,496.91,454.5,496s-19.32-10.44-20-19.1,4.89-14.66,13.33-14.66S467.61,474.25,465.06,479.68Z" transform="translate(0)"/><path class="cls-19" d="M465,479.64c-5.83-2.53-10.29-9-15.16-8.28C453.39,471.36,456.19,477.05,465,479.64Z" transform="translate(0)"/><path class="cls-16" d="M587.31,526.21c.69-10,7.07-55-18.47-55.87s-21.2,18-23.26,26.46S567,550.38,587.31,526.21Z" transform="translate(0)"/><path class="cls-16" d="M569.75,559.05c12.57,0,22.81-9.89,22.81-22s-10.24-22-22.81-22S547,524.92,547,537,557.2,559.05,569.75,559.05Z" transform="translate(0)"/><path class="cls-19" d="M564,462.34c-3.75-2.17-11.84-.59-16.58,4.74a21.68,21.68,0,0,0-5.33,11.05s-7.3,3.36-6.71,8.49S567.54,473.4,564,462.34Z" transform="translate(0)"/><path class="cls-18" d="M544.14,479.68c-16.88,6.9-14.36,24.33-2.06,53.69s23.92,26,36.19,19.14c9.18-7.63,5.52-22.5-.69-28.72S552.47,496.91,554.69,496s19.33-10.44,20-19.1-4.89-14.66-13.33-14.66S541.59,474.25,544.14,479.68Z" transform="translate(0)"/><path class="cls-19" d="M544.2,479.64c5.83-2.53,10.29-9,15.16-8.28C555.8,471.36,553,477.05,544.2,479.64Z" transform="translate(0)"/><path class="cls-7" d="M331.23,559.05c12.56,0,22.8-9.89,22.8-22s-10.24-22-22.8-22-22.8,9.88-22.8,22S318.67,559.05,331.23,559.05Z" transform="translate(0)"/><path class="cls-19" d="M325.47,462.34c-3.76-2.17-11.85-.59-16.58,4.74a21.68,21.68,0,0,0-5.33,11.05s-7.31,3.36-6.72,8.49S329,473.4,325.47,462.34Z" transform="translate(0)"/><path class="cls-18" d="M305.61,479.68c-16.88,6.9-14.35,24.33-2.06,53.69s23.92,26,36.2,19.14c9.17-7.63,5.52-22.5-.7-28.72S314,496.91,316.17,496s19.32-10.44,20-19.1-4.89-14.66-13.33-14.66S303.06,474.25,305.61,479.68Z" transform="translate(0)"/><path class="cls-19" d="M305.68,479.64c5.82-2.53,10.28-9,15.15-8.28C317.28,471.36,314.48,477.05,305.68,479.64Z" transform="translate(0)"/><path class="cls-26" d="M499.19,319.2c-12.59.45-49.73,10.43-65.73,37.55s-18.77,34.78-10.77,27.82,9-6.61,10.43.35,1.74,6.61,9.39-9S486.32,327.2,480.76,339s-13.22,44.51-7,31,17-34.08,14.26-17.74,1.74,26.78,5.22,8.35,15.64-42.08,18.77-23.3,11.83,37.21,9,20.52,4.53-20.87,12.52-10.44S551.7,371.71,550,359.88s-5-17.83,4.17-8.69c9.39,9.39,23.78,51.54,20.52,33-2.09-11.82-2.09-27.12-22.26-44.85C534.72,323.83,515.87,318.6,499.19,319.2Z" transform="translate(0)"/><polygon class="cls-27" points="587.79 567.86 644.3 662.29 416.35 706.81 411.35 602.18 587.79 567.86"/><rect class="cls-28" x="284.16" y="499.11" width="8.56" height="179.75" transform="translate(-344.78 759.68) rotate(-78.99)"/><path class="cls-29" d="M620.6,666.9,417.37,706.58,395,684.92c27-28.22,134-75.1,219.93-47.09C614.6,648.85,616.25,658.68,620.6,666.9Z" transform="translate(0)"/><path class="cls-30" d="M614.94,637.83l-35.3-58.73c-67.47-22-165.06-15.39-186.29,6.76L395,684.92C427.45,656.13,518.4,616.64,614.94,637.83Z" transform="translate(0)"/><polygon class="cls-27" points="201.04 567.63 144.53 662.06 372.49 706.58 377.48 601.94 201.04 567.63"/><path class="cls-29" d="M169.26,666.9l203.23,39.68L395,684.92c-27-28.22-134.15-75.1-220.1-47.09C175.26,648.85,173.61,658.68,169.26,666.9Z" transform="translate(0)"/><path class="cls-30" d="M395,684.92a22.59,22.59,0,0,1,22.6,22.59c0,.3,0,.59,0,.88a163.86,163.86,0,0,1-45.16-.21c0-.22,0-.45,0-.67A22.59,22.59,0,0,1,395,684.92Z" transform="translate(0)"/><rect class="cls-31" x="252.11" y="573.38" width="10.9" height="232.43" transform="translate(-468.52 810.77) rotate(-78.99)"/><rect class="cls-31" x="416.26" y="684.26" width="231.21" height="10.9" transform="translate(-121.89 114.23) rotate(-11.01)"/><path class="cls-31" d="M419.29,717.31a175.29,175.29,0,0,1-48.69-.18l2.08-10.7a165.64,165.64,0,0,0,44.69.15l2.06,10.55Z" transform="translate(0)"/><path class="cls-32" d="M174.91,637.83l47.33-89.74c67.47-22,149.89,15.62,171.11,37.77L395,684.92C368,656.7,260.86,609.82,174.91,637.83Z" transform="translate(0)"/><path class="cls-33" d="M603,606.82,557.05,536c-69-17.43-142.47,27.74-163.7,49.89L395,684.92C423,651.9,514.67,590.8,603,606.82Z" transform="translate(0)"/><path class="cls-30" d="M330.64,662.47c-10.4-5.49-70.23-19.15-98.17-19.93C261.93,637.84,322.44,654.17,330.64,662.47Z" transform="translate(0)"/><path class="cls-30" d="M367.5,699.84c-10.22-5.82-58.93-19-86.84-20.66C310.26,675.41,359.57,691.29,367.5,699.84Z" transform="translate(0)"/><path class="cls-30" d="M275.64,664.75c-16.33-4.49-62-13.12-89.93-14.78C217.36,645.5,263.67,656.41,275.64,664.75Z" transform="translate(0)"/><path class="cls-30" d="M369.14,690.81c-10-6.21-58.16-21.25-86-24C312.88,664.2,361.54,682,369.14,690.81Z" transform="translate(0)"/><path class="cls-7" d="M199,567.6c14.86,0,27-10.86,27-24.16s-12.12-24.16-27-24.16-27,10.85-27,24.16S184.18,567.6,199,567.6Z" transform="translate(0)"/><path class="cls-18" d="M251.59,573.13c14.1,6.25-8.09,26.84-20.24,15.49-8-7.5-14.28-7.91-25.25-13.23-28.64-13.9-22.11-30.9-12.94-38.85s23.1-1.75,28.22,5.41S241.61,568.71,251.59,573.13Z" transform="translate(0)"/><path class="cls-18" d="M279.73,586.68c5.18,2.16,10.47,5.53,6.81,8.48S270.07,585.47,279.73,586.68Z" transform="translate(0)"/><path class="cls-19" d="M279.73,586.68c2.46,1.64,6.9,5.08,6.81,8.48S272,588.65,279.73,586.68Z" transform="translate(0)"/><path class="cls-18" d="M255.31,605.41c2.38,4,9.67,8.16,14.14,2.72,0,0,3.78,1.85,7-.35s2.42-4.79,2.42-4.79,10.77,7.52,14.15,4.59-1.85-5.05-5.58-11-13.23-16.63-17.22-18-10-.69-18.65-5.46S224.24,579,230.87,588C233.08,591,251.26,615,255.31,605.41Z" transform="translate(0)"/><path class="cls-19" d="M278.89,603c-2.62-2.56-7.07-10.56-11.41-10.2C272.41,596.15,274.44,601.06,278.89,603Z" transform="translate(0)"/><path class="cls-19" d="M269.45,608.13c-2.86-1.83-7.41-9.54-11.41-10.21C262.08,601.46,264.41,606.31,269.45,608.13Z" transform="translate(0)"/><path class="cls-19" d="M255.31,605.41c-1.47-.94-2.48-3.72-4.84-4.24C252.45,603.33,253.14,605.43,255.31,605.41Z" transform="translate(0)"/><path class="cls-34" d="M357.48,589.27h4.29v15.19c-1.52,1.09-3,1.19-4.29,0Z" transform="translate(0)"/><path class="cls-7" d="M359.62,555.48c6.77,0,12.26,8.86,12.26,19.79s-5.49,19.78-12.26,19.78-12.26-8.86-12.26-19.78S352.85,555.48,359.62,555.48Z" transform="translate(0)"/><path class="cls-34" d="M283.83,570.73h4.79v9.58a5.58,5.58,0,0,1-4.79,0Z" transform="translate(0)"/><path class="cls-13" d="M286.22,523.34a88.8,88.8,0,0,1,13.89,47.86,43.28,43.28,0,0,1-27.77,0C273.21,555.25,278.53,539.29,286.22,523.34Z" transform="translate(0)"/><path class="cls-35" d="M329.47,666.38C319.08,660.89,270,649.24,242,648.46,272,645.32,321.7,659.33,329.47,666.38Z" transform="translate(0)"/><path class="cls-35" d="M369.36,695.74c-8.92-6.45-57.3-20.41-86.52-21.94C312.49,670.47,361.56,687.07,369.36,695.74Z" transform="translate(0)"/><path class="cls-35" d="M272.12,670.47c-9.5-5.57-59-14.8-88.23-13.51C213.08,650.79,263.52,662.59,272.12,670.47Z" transform="translate(0)"/><path class="cls-30" d="M429.11,674.36c18.63-10.07,102.23-31,130.18-31.82C529.82,637.84,445.54,660.11,429.11,674.36Z" transform="translate(0)"/><path class="cls-30" d="M518.51,676.72c16.32-4.5,62-13.12,89.93-14.79C576.79,657.46,530.47,668.37,518.51,676.72Z" transform="translate(0)"/><path class="cls-30" d="M422.62,690.81c10-6.21,58.15-21.25,86-24C478.88,664.2,430.21,682,422.62,690.81Z" transform="translate(0)"/><path class="cls-35" d="M430.27,680.1c10.4-5.49,91.51-30.86,119.46-31.64C519.74,645.32,444.91,669.38,430.27,680.1Z" transform="translate(0)"/><path class="cls-35" d="M422.4,695.74c8.92-6.45,57.3-20.41,86.52-21.94C479.27,670.47,430.2,687.07,422.4,695.74Z" transform="translate(0)"/><path class="cls-35" d="M518.3,671.27c9.5-5.57,59-14.8,88.23-13.51C577.34,651.59,526.9,663.39,518.3,671.27Z" transform="translate(0)"/><polygon class="cls-36" points="411.89 114.4 414.91 130.66 431.3 128.5 416.77 136.4 423.89 151.32 411.89 139.94 399.89 151.32 407.01 136.4 392.48 128.5 408.87 130.66 411.89 114.4"/><path class="cls-37" d="M211.23,208.07l52.29,26.12L231.9,185C212.78,155.3,177.75,191.34,211.23,208.07Z" transform="translate(0)"/><path class="cls-38" d="M208.39,199.2l36.32,18.14-22-34.15C209.46,162.54,185.13,187.58,208.39,199.2Z" transform="translate(0)"/><path class="cls-37" d="M171,151.26c-6.59,18.84,10.47,36.86,27.29,33.7a58.06,58.06,0,0,0,9.17-10.22C208.76,157.67,189,142.66,171,151.26Z" transform="translate(0)"/><path class="cls-36" d="M140,123.43a223.47,223.47,0,0,0-23.1-23.73A222.89,222.89,0,0,0,90.78,79.3,223.47,223.47,0,0,0,113.88,103,222.89,222.89,0,0,0,140,123.43Z" transform="translate(0)"/><path class="cls-16" d="M165.17,171.13l5.52,30.61,29.85,10.39,1.65-1.83c-5.84-6-14.31-16.12-10.37-25.1Z" transform="translate(0)"/><path class="cls-16" d="M190.12,143.33l31,2.18,13.57,28.56-1.64,1.83c-6.59-5.16-17.58-12.49-26.08-7.6Z" transform="translate(0)"/><path class="cls-39" d="M115.38,101.37c-5.31,36.21,41,82.24,76.44,83.83A61.19,61.19,0,0,0,207,168.3C201.56,133.23,150.8,92.17,115.38,101.37Z" transform="translate(0)"/><path class="cls-37" d="M150.89,167.71a119.89,119.89,0,0,0,34.28-38.21,111.94,111.94,0,0,0-22-17.58,119.27,119.27,0,0,1-14.25,19.53A118.63,118.63,0,0,1,131,147.73,112.12,112.12,0,0,0,150.89,167.71Z" transform="translate(0)"/><path class="cls-16" d="M122.48,134.44A61,61,0,0,0,149,104.85c-11.52-4.54-23.25-6.18-33.65-3.48C113.82,112,116.71,123.49,122.48,134.44Z" transform="translate(0)"/><path class="cls-16" d="M141.35,124.67a10.15,10.15,0,1,0,14.34-.77A10.16,10.16,0,0,0,141.35,124.67Z" transform="translate(0)"/><path class="cls-16" d="M162.54,143.68a10.15,10.15,0,1,0,14.34-.77A10.16,10.16,0,0,0,162.54,143.68Z" transform="translate(0)"/><rect class="cls-40" x="198.79" y="154.09" width="2.83" height="46.79" transform="translate(-65.59 208.01) rotate(-48.11)"/><path class="cls-7" d="M143.52,126.61a7.24,7.24,0,1,0,10.23-.55A7.25,7.25,0,0,0,143.52,126.61Z" transform="translate(0)"/><path class="cls-4" d="M144.48,127.47a6,6,0,0,0-.92,6.6,6,6,0,0,1,9.93-4.52,6,6,0,0,1,1.38,1.82,6,6,0,0,0-10.39-3.9Z" transform="translate(0)"/><path class="cls-7" d="M164.71,145.63a7.24,7.24,0,1,0,10.23-.56A7.24,7.24,0,0,0,164.71,145.63Z" transform="translate(0)"/><path class="cls-4" d="M165.67,146.49a5.94,5.94,0,0,0-.92,6.59,6,6,0,0,1,9.93-4.52,6,6,0,0,1,1.38,1.82,6,6,0,0,0-10.39-3.89Z" transform="translate(0)"/><polygon class="cls-36" points="529.85 259.71 532.53 274.17 547.11 272.25 534.19 279.27 540.52 292.54 529.85 282.43 519.19 292.54 525.51 279.27 512.59 272.25 527.17 274.17 529.85 259.71"/><polygon class="cls-41" points="364.46 188.33 366.18 197.6 375.52 196.37 367.24 200.87 371.29 209.38 364.46 202.89 357.62 209.38 361.67 200.87 353.39 196.37 362.74 197.6 364.46 188.33"/><path class="cls-15" d="M292.87,64.13a34.95,34.95,0,1,0,48.31-10.45A34.95,34.95,0,0,0,292.87,64.13Z" transform="translate(0)"/><path class="cls-41" d="M341.13,66.17c1.94-3.08,3.61-6,5-8.63A35.49,35.49,0,0,0,341.71,54l-.58.79V66.17Zm0,46.3V95.3c4.49-6.62,9.35-13.65,3.39-14.94-7.14-1.55.19-7.59,6.93-16.51A35.48,35.48,0,0,1,354,68.36c-1.8,2.18-3,4-2.23,4.43C354.61,74.64,355.3,84.4,346,97c-8,10.82,2.11,2.92,8.8-1.23a35.64,35.64,0,0,1-3.18,6.2A34.82,34.82,0,0,1,341.13,112.47ZM327.94,76.79c.6.33.67,1.24,0,2.86v6.54c1.19-2.47,3.68-6.42,8.07-12.48q2.82-3.9,5.12-7.54V54.82c-5.89,8-11,14.15-7.37,5.23a20.93,20.93,0,0,0,1.81-9.3,34.84,34.84,0,0,0-7.63-2.18V76.79Zm0,30.48V96a2,2,0,0,0,1.51-.93,1.66,1.66,0,0,0-1.51-2.61V89.74c1.48,0,4.56-2,7.18-3.81,6.17-4.16,6.78.3.66,8-4.8,6-6.07,8.26-7.84,13.35Zm13.19-12a61.14,61.14,0,0,0-4.27,6.88c-1.81,3.7-.12,8.52,3.5,10.77l.77-.48ZM325,55.38c1.82.71,2.41,3.6,0,7.46V77.32c1.34-.63,2.39-.85,3-.53V48.57c-1-.16-2-.28-3-.36v7.17Zm3,24.27a28.59,28.59,0,0,1-3,5.09v5.77a.92.92,0,0,1,.83,1.45,1.06,1.06,0,0,1-.83.52v6.34c2.09.55,2.71,2.24.39,5.84-.13.21-.26.4-.39.59v10.52c.48-1.11.92-2.29,1.32-3.53.64-2,1.16-3.57,1.64-5V96c-1.33.11-2.61-1.21-1.24-3a1.51,1.51,0,0,1,1.24-.55V89.74c-1,0-1.27-.91,0-3.55Zm-3.86-24.44a2.93,2.93,0,0,1,.9.17V48.21l-.9-.05v7.05Zm.9,7.63-.12.19q-.39.6-.78,1.26v9.24a.57.57,0,0,1,0,.26v1.56a.7.7,0,0,1,.64,1.1.83.83,0,0,1-.64.4v.93c.31-.17.61-.32.9-.46V62.84Zm0,21.9c-.28.4-.58.82-.9,1.25v5.15a1.75,1.75,0,0,1,.21-.32.82.82,0,0,1,.69-.31V84.74Zm-.9,13.92a7.62,7.62,0,0,1,.9.16V92.48a1,1,0,0,1-.9-.41v1.72a1,1,0,0,1,.09,1.4l-.09.13v3.34Zm.9,6.59a13.89,13.89,0,0,1-.9,1.16v11.27c.31-.61.61-1.25.9-1.91Zm-1.84-49.91a3.6,3.6,0,0,1,.94-.13V48.16l-.94,0v7.22Zm.94,9c-.31.52-.62,1.06-.94,1.62v6.86a1,1,0,0,1,.94.76V64.29Zm-.94,14,.94-.56v-.93c-.56,0-1.11-.52-.52-1.27a.62.62,0,0,1,.52-.23V73.79a1.24,1.24,0,0,1-.17.43,1.08,1.08,0,0,1-.77.51v3.61Zm.94,7.65-.48.66-.46.6v6.16a1.35,1.35,0,0,1,.94.38V92.07a.93.93,0,0,1,0-.93V86Zm-.94,12.62c.33,0,.65,0,.94,0V95.32a1.28,1.28,0,0,1-.94.51v2.78Zm.94,7.8a6.94,6.94,0,0,1-.94.94V118c.27,0,.53,0,.8,0l.14-.28Zm-2.62-50.26a5.48,5.48,0,0,1,1.68-.81V48.12h-1.68v8Zm1.68,9.76c-.57,1-1.14,2.14-1.68,3.25v6.5a.92.92,0,0,1,.83,1.46,1.1,1.1,0,0,1-.83.52v1.84c.58-.43,1.15-.81,1.68-1.14V74.73c-.76.12-1.55-.63-.76-1.66a.84.84,0,0,1,.76-.3V65.91Zm0,21.34c-.55.72-1.11,1.39-1.68,2V98.7a16.79,16.79,0,0,1,1.68-.09V95.83c-.91.08-1.79-.83-.85-2a1,1,0,0,1,.85-.37V87.25Zm0,20.1a3.87,3.87,0,0,1-1.68.9V118c.56,0,1.12,0,1.68,0Zm-4.93-59c-3.46,8.58-7,12.08-10.37,14.66v9.58A8.41,8.41,0,0,0,310,70c1.6-3.1,3.71,2.78.19,9.15-.75,1.36-1.55,2-2.33,2.09V85.7c2.68.15,5.19-1.1,6.45-4.46,4-10.78-.89-14,4.14-21.77a11.74,11.74,0,0,1,3-3.32v-8a32.06,32.06,0,0,0-3.25.23Zm3.25,20.81v6.5a.83.83,0,0,0-.69.31c-.77,1-.06,1.73.69,1.67v1.84l-.41.29c-5.1,3.8-3-3.6.41-10.61Zm0,20.11c-4.76,5.29-9.85,7.55-13.62,7.42v5.83l.4-.17a56.58,56.58,0,0,1,13.22-3.65V89.27Zm0,19V118a34.81,34.81,0,0,1-13.08-2.86,54.32,54.32,0,0,1,3.88-7.29C315.89,102.22,317.9,109,321.46,108.25ZM307.84,63c-3.2,2.45-6.2,4.06-8.76,8.42,0,.07-.07.14-.11.2v8a11.55,11.55,0,0,0,8.87,6.06V81.19c-2.85.35-5.34-6.46-3.75-10.33s3.93-3.36,2.34.33c-1,2.37.07,2.46,1.41,1.4V63Zm0,33.68c-2.81-.09-4.9-1.52-5.58-4-1.43-5.27-1.49-6.45-3.29-3.88v6.79c1.61,0,3.31,1.54,2,3.52a2.64,2.64,0,0,1-2,1.26v1.56c1-.32,2.37.61,1.55,1.88a1.45,1.45,0,0,1-1.55.66v4.66a35.52,35.52,0,0,0,2.77,2.23c1-4.13,1.79-7,6.1-8.84ZM299,71.63a8.23,8.23,0,0,0,0,8v-8Zm0,17.17v6.79a2,2,0,0,0-1.67.74c-1.86,2.4-.13,4.19,1.67,4v1.56a1,1,0,0,0-.49.35c-.87,1.13-.31,2,.49,2.19v4.66a34.93,34.93,0,0,1-11.59-23.66c1.13-1.17,2.11-2.16,2.79-2.91,4-4.4,4.27,13.22,7.45,8.29C298.16,90,298.61,89.32,299,88.8Z" transform="translate(0)"/><path class="cls-15" d="M292.87,64.13a34.64,34.64,0,0,0-4.65,11c6.09-1.54,14.24-13.35,18-23.1A34.8,34.8,0,0,0,292.87,64.13Z" transform="translate(0)"/><path class="cls-34" d="M371.87,645.41h4.79V655a5.58,5.58,0,0,1-4.79,0Z" transform="translate(0)"/><path class="cls-13" d="M374.27,598a88.82,88.82,0,0,1,13.88,47.86,43.18,43.18,0,0,1-27.76,0C361.26,629.93,366.58,614,374.27,598Z" transform="translate(0)"/><path class="cls-42" d="M635.35,150.16l-15.72-2.69c-4.06-2.32-11.53,3.09-8.81,6.19l5.24,7.18Z" transform="translate(0)"/><path class="cls-13" d="M701.2,109.24l-1.62,1a.8.8,0,0,0-.29,1.09h0a.79.79,0,0,0,1.09.28l1.63-.95a.79.79,0,0,0,.28-1.09h0A.8.8,0,0,0,701.2,109.24Z" transform="translate(0)"/><path class="cls-13" d="M693.78,99.64l10.86,19S696.34,109.41,693.78,99.64Z" transform="translate(0)"/><path class="cls-43" d="M634.62,148.93l-15.72-2.69c-4-2.32-11.53,3.09-8.8,6.19l5.23,7.18Z" transform="translate(0)"/><path class="cls-43" d="M644.81,124.33l50.68,30.93c11.47,7,28.37-6.41,18-11.66L658.1,115.45C648.22,110.44,635,118.37,644.81,124.33Z" transform="translate(0)"/><polygon class="cls-7" points="664.69 111.22 662.57 112.47 675.08 127.5 675.85 124.64 664.69 111.22"/><path class="cls-7" d="M694.81,107.11c2.17-.18,5.12.69,8.23,10s-14.13,9.16-14.13,9.16-13.16,9.09-24.53,15.78S628.24,163,623.52,164.38s-8.74,1.45-10-4.71,1.84-14.88,5.64-14.42,11.18,4.69,13,4.31,13.58-12.37,27.24-20.91S692.57,107.3,694.81,107.11Z" transform="translate(0)"/><path class="cls-13" d="M675,121.71c1.62.82,2.14,3.8.26,5.42a23.86,23.86,0,0,1-3.68,2.62l-4.48-5.22,1-.62,3.23-2,1.8-1.15Z" transform="translate(0)"/><polygon class="cls-7" points="689.4 122.92 687.28 124.17 699.79 139.19 700.55 136.33 689.4 122.92"/><path class="cls-44" d="M652,104.41a.44.44,0,0,0-.59-.2.45.45,0,0,0-.19.6l6.5,12.77a.44.44,0,1,0,.79-.4Z" transform="translate(0)"/><path class="cls-44" d="M659.45,103.1a.46.46,0,0,0-.42-.47.45.45,0,0,0-.47.42l-.88,14.3a.43.43,0,0,0,.41.47.44.44,0,0,0,.47-.41Z" transform="translate(0)"/><path class="cls-44" d="M652.05,104.63a.44.44,0,0,0-.88,0l-.89,17.36a.43.43,0,0,0,.41.46.43.43,0,0,0,.47-.42Z" transform="translate(0)"/><path class="cls-44" d="M703,127.42a.44.44,0,0,0-.33-.53.44.44,0,0,0-.53.32l-4.91,19.71a.44.44,0,1,0,.86.22Z" transform="translate(0)"/><path class="cls-44" d="M703,127.24a.44.44,0,1,0-.87.15l2.55,15.1a.44.44,0,1,0,.87-.15Z" transform="translate(0)"/><path class="cls-44" d="M709.67,126.28a.44.44,0,0,0-.86-.21l-4.17,16.24a.44.44,0,1,0,.85.22Z" transform="translate(0)"/><path class="cls-13" d="M645.93,106l54.27,27.23c12.29,6.17,29-7,18-11.59l-59-24.45C648.63,92.84,635.47,100.75,645.93,106Z" transform="translate(0)"/><path class="cls-43" d="M636.23,150.51l3.54,13.08c1.07,3.94-5.5,8.16-9.18,6.23l-10.72-5.64,4.26-7.05Z" transform="translate(0)"/><path class="cls-34" d="M223.37,598.08h4.22v15c-1.49,1.08-2.91,1.17-4.22,0Z" transform="translate(0)"/><path class="cls-7" d="M225.48,572.31c8.29,0,15,7.05,15,15.74s-6.72,15.73-15,15.73-15-7-15-15.73S217.19,572.31,225.48,572.31Z" transform="translate(0)"/><polygon class="cls-36" points="402.86 297.83 405.02 309.44 416.72 307.9 406.35 313.53 411.43 324.19 402.86 316.06 394.3 324.19 399.38 313.53 389.01 307.9 400.71 309.44 402.86 297.83"/><polygon class="cls-41" points="673.17 245.46 677.24 267.36 699.32 264.46 679.75 275.09 689.33 295.2 673.17 279.87 657.01 295.2 666.6 275.09 647.02 264.46 669.11 267.36 673.17 245.46"/><path class="cls-16" d="M459.68,231.74,447,170.16c-10.42-50.69,21.68-94,76.9-75.09s53.92,72.89,14.56,106.5l-47.8,40.82Z" transform="translate(0)"/><path class="cls-45" d="M461.39,232.33l-9.31-60.44c-7.67-49.75,22.73-93.68,71.85-76.82s46.12,70.22,9.51,104.77L489,241.8Z" transform="translate(0)"/><path class="cls-16" d="M463.88,233.18l-4.47-58.77c-3.68-48.38,24.25-93.17,64.52-79.34s34.8,66.33,2.18,102.25L486.49,241Z" transform="translate(0)"/><path class="cls-45" d="M466.86,234.21l1.35-56.78c1.1-46.74,26.07-92.54,55.72-82.36s21.22,61.67-6.62,99.23l-33.8,45.62Z" transform="translate(0)"/><path class="cls-16" d="M471.73,235.88l10.83-53.52c8.92-44.06,29.06-91.52,41.37-87.29s-.95,54.06-21,94.31l-24.32,48.87Z" transform="translate(0)"/><polygon class="cls-46" points="446.19 151.45 450.47 259.19 449.53 259.23 445.24 151.12 446.19 151.45"/><polygon class="cls-46" points="551.88 187.73 482.1 270.41 481.38 269.8 550.93 187.41 551.88 187.73"/><polygon class="cls-46" points="460.63 156.41 454.71 260.69 453.77 260.64 459.7 156.09 460.63 156.41"/><polygon class="cls-46" points="537.41 182.77 477.88 268.92 477.11 268.38 536.49 182.45 537.41 182.77"/><polygon class="cls-46" points="487.01 165.46 462.55 263.48 461.64 263.25 486.12 165.16 487.01 165.46"/><polygon class="cls-46" points="511 173.7 470.07 266.14 469.22 265.76 510.11 173.39 511 173.7"/><path class="cls-47" d="M445.25,150l107.28,36.82-.7.93L445.24,151.2C445.24,150.81,445.25,150.42,445.25,150Z" transform="translate(0)"/><polygon class="cls-16" points="449.4 258.71 482.24 269.99 468.04 294.35 445.64 286.66 449.4 258.71"/><polygon class="cls-48" points="478.82 275.86 477.14 278.73 448.05 268.75 448.5 265.45 478.82 275.86"/><polygon class="cls-48" points="449.4 258.71 482.24 269.99 480.56 272.87 448.96 262.01 449.4 258.71"/><polygon class="cls-36" points="449.11 260.9 481.13 271.89 480.56 272.87 448.96 262.01 449.11 260.9"/><path class="cls-36" d="M449.87,261.38c3.62,1.24,3.15,10.35-2.85,8.29S446.25,260.13,449.87,261.38Z" transform="translate(0)"/><path class="cls-36" d="M449.56,262.27c1,.34,2.24-.86,2.31-2a11.26,11.26,0,0,1-1.49-.42,11.39,11.39,0,0,1-1.43-.58C448.33,260.22,448.58,261.94,449.56,262.27Z" transform="translate(0)"/><path class="cls-36" d="M480.23,271.8c3.62,1.24,3.16,10.36-2.85,8.3S476.61,270.56,480.23,271.8Z" transform="translate(0)"/><path class="cls-36" d="M479.92,272.7c1,.33,2.24-.86,2.32-2a12.39,12.39,0,0,1-1.5-.41,13.89,13.89,0,0,1-1.43-.59C478.69,270.64,479,272.36,479.92,272.7Z" transform="translate(0)"/><path class="cls-36" d="M460,264.85c3.62,1.24,3.15,10.36-2.85,8.3S456.37,263.61,460,264.85Z" transform="translate(0)"/><path class="cls-36" d="M459.68,265.75c1,.33,2.24-.86,2.32-2a12.6,12.6,0,0,1-1.5-.42,11.31,11.31,0,0,1-1.43-.59C458.45,263.7,458.71,265.41,459.68,265.75Z" transform="translate(0)"/><path class="cls-36" d="M470.11,268.33c3.62,1.24,3.16,10.35-2.85,8.29S466.49,267.08,470.11,268.33Z" transform="translate(0)"/><path class="cls-36" d="M469.8,269.22c1,.34,2.24-.86,2.32-2a12.6,12.6,0,0,1-1.5-.42,14,14,0,0,1-1.43-.58C468.57,267.17,468.83,268.89,469.8,269.22Z" transform="translate(0)"/><polygon class="cls-41" points="137.43 192.23 141.5 214.13 163.58 211.23 144.01 221.87 153.59 241.97 137.43 226.64 121.27 241.97 130.85 221.87 111.28 211.23 133.37 214.13 137.43 192.23"/><polygon class="cls-16" points="293.42 146.01 295.14 155.28 304.48 154.05 296.2 158.55 300.25 167.05 293.42 160.57 286.58 167.05 290.63 158.55 282.35 154.05 291.7 155.28 293.42 146.01"/><polygon class="cls-16" points="579.27 53.91 581.72 67.12 595.05 65.37 583.24 71.79 589.02 83.92 579.27 74.67 569.52 83.92 575.3 71.79 563.49 65.37 576.82 67.12 579.27 53.91"/><polygon class="cls-16" points="344.99 271.56 347.44 284.78 360.77 283.03 348.96 289.44 354.74 301.58 344.99 292.33 335.24 301.58 341.02 289.44 329.21 283.03 342.54 284.78 344.99 271.56"/><polygon class="cls-16" points="160.41 67.41 162.13 76.68 171.47 75.45 163.19 79.95 167.24 88.46 160.41 81.97 153.57 88.46 157.62 79.95 149.34 75.45 158.69 76.68 160.41 67.41"/><polygon class="cls-13" points="436.83 588.2 456.35 606.05 487.33 597.47 481.71 575.77 436.83 588.2"/><polygon class="cls-13" points="529.35 562.57 481.35 575.87 487.33 597.47 517.5 589.11 529.35 562.57"/><path class="cls-7" d="M442.75,583.79l37.83-10.48L462.71,508.8C436.76,541.43,442.75,583.79,442.75,583.79Z" transform="translate(0)"/><path class="cls-15" d="M467.66,516.29c2,7.42,15.51,56,15.51,56l32.86-9.1S501.56,529,467.66,516.29Z" transform="translate(0)"/><polygon class="cls-16" points="440.47 591.52 443.98 594.73 483.9 583.68 482.82 579.79 440.47 591.52"/><polygon class="cls-16" points="527.16 567.5 482.46 579.89 483.54 583.78 525.01 572.29 527.16 567.5"/><path class="cls-15" d="M437.1,595.29A22.91,22.91,0,0,0,430,626.9l19.37-12.24Z" transform="translate(0)"/><path class="cls-7" d="M441.1,601.62a15.44,15.44,0,0,0-4.81,21.28l13-8.24Z" transform="translate(0)"/><path class="cls-49" d="M445.8,609.08a6.6,6.6,0,0,0-2.05,9.11l5.58-3.53Z" transform="translate(0)"/><path class="cls-15" d="M467.57,582.66a22.92,22.92,0,0,0-12.47,29.91l21.19-8.72Z" transform="translate(0)"/><path class="cls-7" d="M470.42,589.59A15.42,15.42,0,0,0,462,609.72l14.26-5.87Z" transform="translate(0)"/><path class="cls-49" d="M473.78,597.74a6.61,6.61,0,0,0-3.6,8.63l6.11-2.52Z" transform="translate(0)"/><path class="cls-15" d="M500,572.51a22.92,22.92,0,0,0-15.23,28.61l21.92-6.69Z" transform="translate(0)"/><path class="cls-7" d="M502.14,579.68a15.42,15.42,0,0,0-10.24,19.25l14.75-4.5Z" transform="translate(0)"/><path class="cls-50" d="M504.72,588.11a6.6,6.6,0,0,0-4.39,8.25l6.32-1.93Z" transform="translate(0)"/><path class="cls-15" d="M533,565.9A22.92,22.92,0,0,0,515.23,593l22.44-4.63Z" transform="translate(0)"/><path class="cls-7" d="M534.56,573.24a15.42,15.42,0,0,0-12,18.22l15.1-3.11Z" transform="translate(0)"/><path class="cls-49" d="M536.34,581.87a6.61,6.61,0,0,0-5.14,7.81l6.47-1.33Z" transform="translate(0)"/><path class="cls-15" d="M566.89,563.32a22.91,22.91,0,0,0-21.32,24.41l22.86-1.55Z" transform="translate(0)"/><path class="cls-7" d="M567.39,570.79A15.43,15.43,0,0,0,553,587.22l15.39-1Z" transform="translate(0)"/><path class="cls-49" d="M568,579.58a6.61,6.61,0,0,0-6.15,7l6.59-.45Z" transform="translate(0)"/><text class="cls-51" transform="matrix(0.5, 0.5, -0.71, 0.7, 591.67, 334.21)">♫</text><text class="cls-52" transform="matrix(0.94, -0.24, 0.25, 0.97, 343.96, 177.11)">♫</text><text class="cls-51" transform="matrix(0.83, -0.37, 0.41, 0.91, 187.95, 298.56)">♫</text><polygon class="cls-16" points="431.34 56.85 433.06 66.11 442.4 64.89 434.12 69.38 438.18 77.89 431.34 71.41 424.5 77.89 428.56 69.38 420.28 64.89 429.62 66.11 431.34 56.85"/><path class="cls-13" d="M638,222.61a14.49,14.49,0,0,0,15-1.1A14.47,14.47,0,0,1,640.55,230,15,15,0,0,1,638,222.61Z" transform="translate(0)"/><path class="cls-13" d="M644.54,209.08A14.47,14.47,0,0,0,653,221.51,14.48,14.48,0,0,1,639.45,215a15,15,0,0,1,4.82-5.7Z" transform="translate(0)"/><path class="cls-13" d="M659.53,208A14.47,14.47,0,0,0,653,221.51a14.49,14.49,0,0,1-1.1-15A15.09,15.09,0,0,1,659.53,208Z" transform="translate(0)"/><path class="cls-13" d="M668,220.41a14.49,14.49,0,0,0-15,1.1,14.49,14.49,0,0,1,12.43-8.45A14.89,14.89,0,0,1,668,220.41Z" transform="translate(0)"/><path class="cls-13" d="M661.43,233.94A14.48,14.48,0,0,0,653,221.51a14.48,14.48,0,0,1,13.53,6.54,14.92,14.92,0,0,1-4.81,5.7Z" transform="translate(0)"/><path class="cls-13" d="M646.44,235A14.48,14.48,0,0,0,653,221.51a14.47,14.47,0,0,1,1.1,15A15.05,15.05,0,0,1,646.44,235Z" transform="translate(0)"/><path class="cls-53" d="M639.45,215A14.47,14.47,0,0,0,653,221.51a14.49,14.49,0,0,1-15,1.1A15.19,15.19,0,0,1,639.45,215Z" transform="translate(0)"/><path class="cls-53" d="M651.88,206.52a14.49,14.49,0,0,0,1.1,15,14.47,14.47,0,0,1-8.44-12.43A14.85,14.85,0,0,1,651.88,206.52Z" transform="translate(0)"/><path class="cls-53" d="M665.41,213.06A14.49,14.49,0,0,0,653,221.51,14.47,14.47,0,0,1,659.53,208a15,15,0,0,1,5.7,4.81Z" transform="translate(0)"/><path class="cls-53" d="M666.51,228.05A14.48,14.48,0,0,0,653,221.51a14.49,14.49,0,0,1,15-1.1A15,15,0,0,1,666.51,228.05Z" transform="translate(0)"/><path class="cls-53" d="M654.08,236.5a14.47,14.47,0,0,0-1.1-15,14.48,14.48,0,0,1,8.45,12.43A15,15,0,0,1,654.08,236.5Z" transform="translate(0)"/><path class="cls-53" d="M640.55,230A14.47,14.47,0,0,0,653,221.51,14.48,14.48,0,0,1,646.44,235a14.86,14.86,0,0,1-5.7-4.82Z" transform="translate(0)"/><path class="cls-41" d="M376,240.13a14.47,14.47,0,0,0,15-1.1,14.46,14.46,0,0,1-12.43,8.45A15.05,15.05,0,0,1,376,240.13Z" transform="translate(0)"/><path class="cls-41" d="M382.55,226.6A14.47,14.47,0,0,0,391,239a14.49,14.49,0,0,1-13.53-6.54,15,15,0,0,1,4.82-5.7Z" transform="translate(0)"/><path class="cls-41" d="M397.54,225.5A14.48,14.48,0,0,0,391,239a14.49,14.49,0,0,1-1.1-15A15.19,15.19,0,0,1,397.54,225.5Z" transform="translate(0)"/><path class="cls-41" d="M406,237.94A14.49,14.49,0,0,0,391,239a14.48,14.48,0,0,1,12.43-8.44A14.86,14.86,0,0,1,406,237.94Z" transform="translate(0)"/><path class="cls-41" d="M399.44,251.46A14.5,14.5,0,0,0,391,239a14.51,14.51,0,0,1,13.53,6.55,15,15,0,0,1-4.81,5.7Z" transform="translate(0)"/><path class="cls-41" d="M384.45,252.57A14.5,14.5,0,0,0,391,239a14.51,14.51,0,0,1,1.1,15A15.26,15.26,0,0,1,384.45,252.57Z" transform="translate(0)"/><path class="cls-15" d="M377.46,232.49A14.48,14.48,0,0,0,391,239a14.47,14.47,0,0,1-15,1.1A15.18,15.18,0,0,1,377.46,232.49Z" transform="translate(0)"/><path class="cls-15" d="M389.89,224a14.49,14.49,0,0,0,1.1,15,14.47,14.47,0,0,1-8.44-12.43A15.05,15.05,0,0,1,389.89,224Z" transform="translate(0)"/><path class="cls-15" d="M403.42,230.59A14.48,14.48,0,0,0,391,239a14.48,14.48,0,0,1,6.55-13.53,15.11,15.11,0,0,1,5.7,4.82Z" transform="translate(0)"/><path class="cls-15" d="M404.52,245.58A14.51,14.51,0,0,0,391,239a14.49,14.49,0,0,1,15-1.09A15.07,15.07,0,0,1,404.52,245.58Z" transform="translate(0)"/><path class="cls-15" d="M392.09,254a14.51,14.51,0,0,0-1.1-15,14.5,14.5,0,0,1,8.45,12.43A15,15,0,0,1,392.09,254Z" transform="translate(0)"/><path class="cls-15" d="M378.56,247.48A14.48,14.48,0,0,0,391,239a14.5,14.5,0,0,1-6.54,13.54,15,15,0,0,1-5.7-4.82Z" transform="translate(0)"/><path class="cls-16" d="M154.43,298,95.17,287a.7.7,0,0,0-.82.56L93.52,292a.7.7,0,0,0,.56.82l2.75.51L96,297.69a3.36,3.36,0,0,0,2.69,3.92l2.2.41a3.35,3.35,0,0,0,3.92-2.68l.82-4.39L143.51,302l-.82,4.39a3.37,3.37,0,0,0,2.69,3.92l2.2.41a3.36,3.36,0,0,0,3.92-2.68l.83-4.39,1,.19a.71.71,0,0,0,.82-.57l.83-4.45A.7.7,0,0,0,154.43,298Z" transform="translate(0)"/><path class="cls-54" d="M143.49,302l-.82,4.39a3.37,3.37,0,0,0,2.69,3.93l2.2.41a3.36,3.36,0,0,0,3.92-2.69l.82-4.39Z" transform="translate(0)"/><path class="cls-54" d="M96.81,293.3,96,297.69a3.36,3.36,0,0,0,2.68,3.92l2.21.41a3.36,3.36,0,0,0,3.92-2.69l.82-4.39Z" transform="translate(0)"/><path class="cls-15" d="M153.06,282.22c-.36-8.71-5-19.73-6.81-20.07-.9-.17-7.91-2.17-15.12-3.52s-14.76-2.07-15.54-2.21c-1.55-.29-10.11,8.26-13.6,16.26-6.75,0-7.68,11.38-7.72,11.88a.7.7,0,0,0,.57.74h0L125,290.87l30.14,5.71h0a.72.72,0,0,0,.81-.49C156.11,295.62,159.34,284.7,153.06,282.22Z" transform="translate(0)"/><path class="cls-13" d="M103.23,283.45a3.12,3.12,0,1,1,3.65-2.5A3.14,3.14,0,0,1,103.23,283.45Z" transform="translate(0)"/><path class="cls-7" d="M107,274a.22.22,0,0,1-.16-.12v-.21c.26-.52,6.48-12.8,9.39-13.24s13.71,1.53,14.17,1.62c0,0,1.11.18,2.72.49,5.1.95,11.11,2.32,12.1,3.34,1.43,1.5,3.67,15.08,3.75,15.66a.22.22,0,0,1-.07.2.24.24,0,0,1-.2.06Z" transform="translate(0)"/><path class="cls-13" d="M148,291.82a3.12,3.12,0,1,1,3.65-2.49A3.12,3.12,0,0,1,148,291.82Z" transform="translate(0)"/><rect class="cls-55" x="124.21" y="276.08" width="4.43" height="18.92" transform="translate(-177.48 357.34) rotate(-79.41)"/><rect class="cls-40" x="101.28" y="267.14" width="4.08" height="8.24" transform="matrix(0.18, -0.98, 0.98, 0.18, -182.3, 322.96)"/><rect class="cls-40" x="151.27" y="276.48" width="4.08" height="8.24" transform="translate(-150.69 379.74) rotate(-79.41)"/><path class="cls-4" d="M111.21,274.81l29.1-10.71c2.46.62,4.38,1.26,4.91,1.8a4.07,4.07,0,0,1,.61,1.19l-25.6,9.41Z" transform="translate(0)"/><path class="cls-4" d="M107.8,271.84l25.21-9.3.11,0c1.41.26,2.89.56,4.32.87l-29.33,10.8L107,274a.22.22,0,0,1-.16-.12v-.21C106.89,273.57,107.25,272.87,107.8,271.84Z" transform="translate(0)"/><path class="cls-4" d="M124.18,277.24l22.26-8.19c.19.7.38,1.47.56,2.28l-18.32,6.75Z" transform="translate(0)"/><path class="cls-18" d="M583.86,276.56h0a4,4,0,0,1,1.19,5.51L563.22,316a4,4,0,0,1-5.52,1.2h0a4,4,0,0,1-1.19-5.52l21.84-33.9A4,4,0,0,1,583.86,276.56Z" transform="translate(0)"/><path class="cls-16" d="M611.67,214l17.62,11.36c3,1.92,3.4,5.22,1,9.57L597,295.86c-2,3.61-7,4.39-10.67,2.05L563.4,283.14c-3.63-2.34-5-7.27-2.55-10.56l41.68-55.51C605.58,213,608.5,212,611.67,214Z" transform="translate(0)"/><path class="cls-45" d="M616.38,230.42,597.9,259.11v24.78l27.44-47.81c4.34-7.57-3.74-13.76-9-5.66Zm-18.48,20V229.92l5.66-7.87c5.09-7.08,14.08-2.28,8.86,5.82Zm0,8.7L583.15,282c-2,3.07-1.76,6.86.57,8.27l3.26,2c2.34,1.41,6,.26,7.78-2.9l3.14-5.48V259.11Zm0-29.19v20.49l-18.71,29c-2,3.07-5.52,4.44-7.77,2.9l-3.15-2.15c-2.26-1.54-2.71-5.32-.58-8.28Z" transform="translate(0)"/><path class="cls-41" d="M606.9,277.76l-9.9,18.1c-2,3.61-7,4.39-10.67,2.05L563.4,283.14c-3.63-2.34-5-7.27-2.55-10.56l12.39-16.5Z" transform="translate(0)"/><path class="cls-43" d="M611.67,214l17.62,11.36c3,1.92,3.4,5.22,1,9.57l-9.9,18.1-30.27-19.49,12.39-16.5C605.58,213,608.5,212,611.67,214Z" transform="translate(0)"/><path class="cls-56" d="M616.38,230.42l-5.76,8.93v7.41l6.27,4,8.45-14.72c4.34-7.57-3.74-13.76-9-5.66Zm-5.76.24v-11.9c3,.77,4.85,4.37,1.8,9.11Zm0,8.69-3.37,5.24,3.37,2.17v-7.41Zm0-20.59v11.9L603.29,242l-9.64-6.21,9.91-13.78C605.68,219.11,608.46,218.22,610.62,218.76Z" transform="translate(0)"/><path class="cls-57" d="M592.05,268.19l-7.1,11V291l2,1.24c2.34,1.41,6,.26,7.78-2.9l8.14-14.19-10.85-7Zm-7.1,2.33v-6.9l3.14,2Zm0,8.7-1.8,2.79c-2,3.07-1.76,6.86.57,8.27L585,291V279.22Zm0-15.6v6.9l-5.76,8.94c-2,3.07-5.52,4.44-7.77,2.9l-3.15-2.15c-2.26-1.54-2.71-5.32-.58-8.28l9.55-13.28Z" transform="translate(0)"/><path class="cls-13" d="M234.77,92.25a14.49,14.49,0,0,0,15-1.1,14.49,14.49,0,0,1-12.42,8.45A15,15,0,0,1,234.77,92.25Z" transform="translate(0)"/><path class="cls-13" d="M241.32,78.72a14.47,14.47,0,0,0,8.44,12.43,14.48,14.48,0,0,1-13.53-6.55,15,15,0,0,1,4.82-5.7Z" transform="translate(0)"/><path class="cls-13" d="M256.31,77.62a14.49,14.49,0,0,0-6.55,13.53,14.49,14.49,0,0,1-1.09-15A15.07,15.07,0,0,1,256.31,77.62Z" transform="translate(0)"/><path class="cls-13" d="M264.75,90.05a14.49,14.49,0,0,0-15,1.1,14.52,14.52,0,0,1,12.43-8.45A14.89,14.89,0,0,1,264.75,90.05Z" transform="translate(0)"/><path class="cls-13" d="M258.21,103.58a14.48,14.48,0,0,0-8.45-12.43,14.5,14.5,0,0,1,13.54,6.54,15,15,0,0,1-4.82,5.7Z" transform="translate(0)"/><path class="cls-13" d="M243.22,104.68a14.48,14.48,0,0,0,6.54-13.53,14.47,14.47,0,0,1,1.1,15A15.07,15.07,0,0,1,243.22,104.68Z" transform="translate(0)"/><path class="cls-53" d="M236.23,84.6a14.48,14.48,0,0,0,13.53,6.55,14.49,14.49,0,0,1-15,1.1A15.19,15.19,0,0,1,236.23,84.6Z" transform="translate(0)"/><path class="cls-53" d="M248.67,76.16a14.49,14.49,0,0,0,1.09,15,14.47,14.47,0,0,1-8.44-12.43A14.86,14.86,0,0,1,248.67,76.16Z" transform="translate(0)"/><path class="cls-53" d="M262.19,82.7a14.52,14.52,0,0,0-12.43,8.45,14.49,14.49,0,0,1,6.55-13.53,14.93,14.93,0,0,1,5.7,4.82Z" transform="translate(0)"/><path class="cls-53" d="M263.3,97.69a14.5,14.5,0,0,0-13.54-6.54,14.49,14.49,0,0,1,15-1.1A15.13,15.13,0,0,1,263.3,97.69Z" transform="translate(0)"/><path class="cls-53" d="M250.86,106.14a14.47,14.47,0,0,0-1.1-15,14.48,14.48,0,0,1,8.45,12.43A15,15,0,0,1,250.86,106.14Z" transform="translate(0)"/><path class="cls-53" d="M237.34,99.6a14.49,14.49,0,0,0,12.42-8.45,14.48,14.48,0,0,1-6.54,13.53,14.93,14.93,0,0,1-5.7-4.82Z" transform="translate(0)"/><path class="cls-16" d="M318.58,578.5,310.16,575c-3.59-1.52-9,1.37-13.21,2.11a12.56,12.56,0,0,1-5.56-.2A5.42,5.42,0,0,0,287,578a12.88,12.88,0,0,0-2.4,3.77,1.62,1.62,0,0,0,.85,2.3l35.74,15.09c.76.32,1.53-.45,1.91-1.18a20.79,20.79,0,0,0,1.95-4.61C325.87,589,325.41,581.39,318.58,578.5Z" transform="translate(0)"/><path class="cls-58" d="M284.61,581.75l.22-.48L323.6,597c-.17.35-.35.69-.49,1-.38.73-1.15,1.5-1.91,1.18l-35.74-15.09A1.64,1.64,0,0,1,284.61,581.75Z" transform="translate(0)"/><path class="cls-58" d="M319.39,598.38c1.55-3.68-.14-6.11-3-7.31s-5.76-.71-7.31,3Z" transform="translate(0)"/><path class="cls-9" d="M310.21,594.6a4.37,4.37,0,1,0,5.73-2.33A4.37,4.37,0,0,0,310.21,594.6Z" transform="translate(0)"/><path class="cls-59" d="M311.53,595.15a2.94,2.94,0,1,0,3.86-1.56A2.95,2.95,0,0,0,311.53,595.15Z" transform="translate(0)"/><path class="cls-58" d="M297.71,589.24c1.56-3.69-.13-6.12-3-7.32s-5.76-.71-7.32,3Z" transform="translate(0)"/><path class="cls-9" d="M288.54,585.45a4.37,4.37,0,1,0,5.73-2.33A4.37,4.37,0,0,0,288.54,585.45Z" transform="translate(0)"/><path class="cls-59" d="M289.86,586a2.94,2.94,0,1,0,3.85-1.57A2.94,2.94,0,0,0,289.86,586Z" transform="translate(0)"/><path class="cls-4" d="M309.27,575.74a13.05,13.05,0,0,0-10.52,3.08l7.83,3.3Z" transform="translate(0)"/><rect class="cls-55" x="309.53" y="576.57" width="6.93" height="9" transform="translate(-344.06 643.44) rotate(-67.11)"/><path class="cls-4" d="M319.41,580l-2.7,6.38,6.27,2.65C325.37,590.05,323.93,582.15,319.41,580Z" transform="translate(0)"/><rect class="cls-60" x="305.89" y="582.29" width="0.94" height="1.88" rx="0.35" transform="translate(-350.09 638.89) rotate(-67.13)"/><rect class="cls-60" x="314.54" y="585.94" width="0.94" height="1.88" rx="0.35" transform="translate(-348.14 649.31) rotate(-67.15)"/><rect class="cls-60" x="298.3" y="577.56" width="1.24" height="2.47" rx="0.46" transform="matrix(0.26, -0.97, 0.97, 0.26, -337.05, 719.84)"/><path class="cls-4" d="M288.67,577.07a2,2,0,0,1,.19,2,1.9,1.9,0,0,1-2.46,1.11,1.59,1.59,0,0,1-.68-.51A6.88,6.88,0,0,1,287,578,5,5,0,0,1,288.67,577.07Z" transform="translate(0)"/><path class="cls-34" d="M333.93,618h4.66v16.5c-1.65,1.18-3.21,1.28-4.66,0Z" transform="translate(0)"/><path class="cls-7" d="M336.26,589.62c9.13,0,16.52,7.75,16.52,17.32s-7.39,17.33-16.52,17.33-16.53-7.76-16.53-17.33S327.13,589.62,336.26,589.62Z" transform="translate(0)"/><path class="cls-41" d="M251.36,127.72a7.26,7.26,0,0,0,7.5-.55,7.25,7.25,0,0,1-6.22,4.22A7.65,7.65,0,0,1,251.36,127.72Z" transform="translate(0)"/><path class="cls-41" d="M254.63,121a7.26,7.26,0,0,0,4.23,6.22,7.25,7.25,0,0,1-6.77-3.28A7.46,7.46,0,0,1,254.5,121Z" transform="translate(0)"/><path class="cls-41" d="M262.13,120.4a7.24,7.24,0,0,0-3.27,6.77,7.24,7.24,0,0,1-.55-7.5A7.64,7.64,0,0,1,262.13,120.4Z" transform="translate(0)"/><path class="cls-41" d="M266.35,126.62a7.22,7.22,0,0,0-7.49.55,7.25,7.25,0,0,1,6.21-4.23A7.45,7.45,0,0,1,266.35,126.62Z" transform="translate(0)"/><path class="cls-41" d="M263.08,133.38a7.22,7.22,0,0,0-4.22-6.21,7.22,7.22,0,0,1,6.76,3.27,7.46,7.46,0,0,1-2.41,2.85Z" transform="translate(0)"/><path class="cls-41" d="M255.59,133.93a7.24,7.24,0,0,0,3.27-6.76,7.25,7.25,0,0,1,.55,7.49A7.39,7.39,0,0,1,255.59,133.93Z" transform="translate(0)"/><path class="cls-15" d="M252.09,123.89a7.25,7.25,0,0,0,6.77,3.28,7.26,7.26,0,0,1-7.5.55A7.66,7.66,0,0,1,252.09,123.89Z" transform="translate(0)"/><path class="cls-15" d="M258.31,119.67a7.24,7.24,0,0,0,.55,7.5,7.26,7.26,0,0,1-4.23-6.22A7.45,7.45,0,0,1,258.31,119.67Z" transform="translate(0)"/><path class="cls-15" d="M265.07,122.94a7.25,7.25,0,0,0-6.21,4.23,7.24,7.24,0,0,1,3.27-6.77,7.46,7.46,0,0,1,2.85,2.41Z" transform="translate(0)"/><path class="cls-15" d="M265.62,130.44a7.22,7.22,0,0,0-6.76-3.27,7.22,7.22,0,0,1,7.49-.55A7.43,7.43,0,0,1,265.62,130.44Z" transform="translate(0)"/><path class="cls-15" d="M259.41,134.66a7.25,7.25,0,0,0-.55-7.49,7.22,7.22,0,0,1,4.22,6.21A7.44,7.44,0,0,1,259.41,134.66Z" transform="translate(0)"/><path class="cls-15" d="M252.64,131.39a7.25,7.25,0,0,0,6.22-4.22,7.24,7.24,0,0,1-3.27,6.76,7.39,7.39,0,0,1-2.85-2.41A1.13,1.13,0,0,1,252.64,131.39Z" transform="translate(0)"/><path class="cls-41" d="M171.91,322.18a7.24,7.24,0,0,0,7.5-.55,7.23,7.23,0,0,1-6.22,4.22A7.41,7.41,0,0,1,171.91,322.18Z" transform="translate(0)"/><path class="cls-41" d="M175.18,315.42a7.26,7.26,0,0,0,4.23,6.21,7.24,7.24,0,0,1-6.77-3.27,7.46,7.46,0,0,1,2.41-2.85Z" transform="translate(0)"/><path class="cls-41" d="M182.68,314.87a7.22,7.22,0,0,0-3.27,6.76,7.22,7.22,0,0,1-.55-7.49A7.43,7.43,0,0,1,182.68,314.87Z" transform="translate(0)"/><path class="cls-41" d="M186.9,321.08a7.25,7.25,0,0,0-7.49.55,7.22,7.22,0,0,1,6.21-4.22A7.44,7.44,0,0,1,186.9,321.08Z" transform="translate(0)"/><path class="cls-41" d="M183.63,327.85a7.25,7.25,0,0,0-4.22-6.22,7.24,7.24,0,0,1,6.76,3.27,7.39,7.39,0,0,1-2.41,2.85Z" transform="translate(0)"/><path class="cls-41" d="M176.13,328.4a7.25,7.25,0,0,0,3.28-6.77,7.26,7.26,0,0,1,.55,7.5A7.66,7.66,0,0,1,176.13,328.4Z" transform="translate(0)"/><path class="cls-15" d="M172.64,318.36a7.24,7.24,0,0,0,6.77,3.27,7.24,7.24,0,0,1-7.5.55A7.64,7.64,0,0,1,172.64,318.36Z" transform="translate(0)"/><path class="cls-15" d="M178.86,314.14a7.22,7.22,0,0,0,.55,7.49,7.26,7.26,0,0,1-4.23-6.21A7.45,7.45,0,0,1,178.86,314.14Z" transform="translate(0)"/><path class="cls-15" d="M185.62,317.41a7.22,7.22,0,0,0-6.21,4.22,7.22,7.22,0,0,1,3.27-6.76,7.53,7.53,0,0,1,2.85,2.4Z" transform="translate(0)"/><path class="cls-15" d="M186.17,324.9a7.24,7.24,0,0,0-6.76-3.27,7.22,7.22,0,0,1,7.49-.55A7.41,7.41,0,0,1,186.17,324.9Z" transform="translate(0)"/><path class="cls-15" d="M180,329.13a7.26,7.26,0,0,0-.55-7.5,7.25,7.25,0,0,1,4.22,6.22A7.65,7.65,0,0,1,180,329.13Z" transform="translate(0)"/><path class="cls-15" d="M173.19,325.85a7.23,7.23,0,0,0,6.22-4.22,7.26,7.26,0,0,1-3.27,6.77,7.41,7.41,0,0,1-2.85-2.41Z" transform="translate(0)"/><path class="cls-41" d="M583.54,192.79a7.24,7.24,0,0,0,7.5-.55,7.23,7.23,0,0,1-6.22,4.22A7.41,7.41,0,0,1,583.54,192.79Z" transform="translate(0)"/><path class="cls-41" d="M586.81,186a7.26,7.26,0,0,0,4.23,6.21,7.26,7.26,0,0,1-6.77-3.27,7.46,7.46,0,0,1,2.41-2.85Z" transform="translate(0)"/><path class="cls-41" d="M594.31,185.47a7.25,7.25,0,0,0-3.27,6.77,7.24,7.24,0,0,1-.55-7.5A7.64,7.64,0,0,1,594.31,185.47Z" transform="translate(0)"/><path class="cls-41" d="M598.53,191.69a7.22,7.22,0,0,0-7.49.55,7.22,7.22,0,0,1,6.21-4.22A7.41,7.41,0,0,1,598.53,191.69Z" transform="translate(0)"/><path class="cls-41" d="M595.26,198.46a7.25,7.25,0,0,0-4.22-6.22,7.24,7.24,0,0,1,6.76,3.27,7.46,7.46,0,0,1-2.41,2.85Z" transform="translate(0)"/><path class="cls-41" d="M587.76,199a7.26,7.26,0,0,0,3.28-6.77,7.26,7.26,0,0,1,.55,7.5A7.66,7.66,0,0,1,587.76,199Z" transform="translate(0)"/><path class="cls-15" d="M584.27,189a7.26,7.26,0,0,0,6.77,3.27,7.24,7.24,0,0,1-7.5.55A7.64,7.64,0,0,1,584.27,189Z" transform="translate(0)"/><path class="cls-15" d="M590.49,184.74a7.24,7.24,0,0,0,.55,7.5,7.26,7.26,0,0,1-4.23-6.21A7.56,7.56,0,0,1,590.49,184.74Z" transform="translate(0)"/><path class="cls-15" d="M597.25,188a7.22,7.22,0,0,0-6.21,4.22,7.25,7.25,0,0,1,3.27-6.77,7.64,7.64,0,0,1,2.85,2.41Z" transform="translate(0)"/><path class="cls-15" d="M597.8,195.51a7.24,7.24,0,0,0-6.76-3.27,7.22,7.22,0,0,1,7.49-.55A7.43,7.43,0,0,1,597.8,195.51Z" transform="translate(0)"/><path class="cls-15" d="M591.59,199.74a7.26,7.26,0,0,0-.55-7.5,7.25,7.25,0,0,1,4.22,6.22A7.65,7.65,0,0,1,591.59,199.74Z" transform="translate(0)"/><path class="cls-15" d="M584.82,196.46a7.23,7.23,0,0,0,6.22-4.22,7.27,7.27,0,0,1-3.27,6.77,7.49,7.49,0,0,1-2.85-2.41Z" transform="translate(0)"/><path class="cls-41" d="M672.83,321.42a7.22,7.22,0,0,0,7.49-.55,7.25,7.25,0,0,1-6.21,4.23A7.45,7.45,0,0,1,672.83,321.42Z" transform="translate(0)"/><path class="cls-41" d="M676.1,314.66a7.23,7.23,0,0,0,4.22,6.21,7.22,7.22,0,0,1-6.76-3.27,7.46,7.46,0,0,1,2.41-2.85Z" transform="translate(0)"/><path class="cls-41" d="M683.6,314.11a7.23,7.23,0,0,0-3.28,6.76,7.24,7.24,0,0,1-.54-7.49A7.54,7.54,0,0,1,683.6,314.11Z" transform="translate(0)"/><path class="cls-41" d="M687.82,320.33a7.24,7.24,0,0,0-7.5.54,7.26,7.26,0,0,1,6.22-4.22A7.45,7.45,0,0,1,687.82,320.33Z" transform="translate(0)"/><path class="cls-41" d="M684.55,327.09a7.25,7.25,0,0,0-4.23-6.22,7.24,7.24,0,0,1,6.77,3.28,7.46,7.46,0,0,1-2.41,2.85Z" transform="translate(0)"/><path class="cls-41" d="M677.05,327.64a7.23,7.23,0,0,0,3.27-6.77,7.24,7.24,0,0,1,.55,7.5A7.64,7.64,0,0,1,677.05,327.64Z" transform="translate(0)"/><path class="cls-15" d="M673.56,317.6a7.22,7.22,0,0,0,6.76,3.27,7.22,7.22,0,0,1-7.49.55A7.54,7.54,0,0,1,673.56,317.6Z" transform="translate(0)"/><path class="cls-15" d="M679.78,313.38a7.24,7.24,0,0,0,.54,7.49,7.23,7.23,0,0,1-4.22-6.21A7.45,7.45,0,0,1,679.78,313.38Z" transform="translate(0)"/><path class="cls-15" d="M686.54,316.65a7.26,7.26,0,0,0-6.22,4.22,7.23,7.23,0,0,1,3.28-6.76,7.46,7.46,0,0,1,2.85,2.41Z" transform="translate(0)"/><path class="cls-15" d="M687.09,324.15a7.24,7.24,0,0,0-6.77-3.28,7.24,7.24,0,0,1,7.5-.54A7.54,7.54,0,0,1,687.09,324.15Z" transform="translate(0)"/><path class="cls-15" d="M680.87,328.37a7.24,7.24,0,0,0-.55-7.5,7.25,7.25,0,0,1,4.23,6.22A7.45,7.45,0,0,1,680.87,328.37Z" transform="translate(0)"/><path class="cls-15" d="M674.11,325.1a7.25,7.25,0,0,0,6.21-4.23,7.23,7.23,0,0,1-3.27,6.77,7.46,7.46,0,0,1-2.85-2.41Z" transform="translate(0)"/><path class="cls-41" d="M502.27,47.36a7.23,7.23,0,0,0,7.49-.55A7.26,7.26,0,0,1,503.55,51,7.45,7.45,0,0,1,502.27,47.36Z" transform="translate(0)"/><path class="cls-41" d="M505.54,40.6a7.22,7.22,0,0,0,4.22,6.21A7.22,7.22,0,0,1,503,43.54a7.53,7.53,0,0,1,2.4-2.85Z" transform="translate(0)"/><path class="cls-41" d="M513,40.05a7.24,7.24,0,0,0-3.27,6.76,7.22,7.22,0,0,1-.55-7.49A7.43,7.43,0,0,1,513,40.05Z" transform="translate(0)"/><path class="cls-41" d="M517.26,46.26a7.26,7.26,0,0,0-7.5.55A7.25,7.25,0,0,1,516,42.59,7.65,7.65,0,0,1,517.26,46.26Z" transform="translate(0)"/><path class="cls-41" d="M514,53a7.23,7.23,0,0,0-4.22-6.22,7.27,7.27,0,0,1,6.77,3.27,7.48,7.48,0,0,1-2.41,2.85Z" transform="translate(0)"/><path class="cls-41" d="M506.49,53.58a7.24,7.24,0,0,0,3.27-6.77,7.24,7.24,0,0,1,.55,7.5A7.64,7.64,0,0,1,506.49,53.58Z" transform="translate(0)"/><path class="cls-15" d="M503,43.54a7.22,7.22,0,0,0,6.76,3.27,7.23,7.23,0,0,1-7.49.55A7.43,7.43,0,0,1,503,43.54Z" transform="translate(0)"/><path class="cls-15" d="M509.21,39.32a7.22,7.22,0,0,0,.55,7.49,7.22,7.22,0,0,1-4.22-6.21A7.44,7.44,0,0,1,509.21,39.32Z" transform="translate(0)"/><path class="cls-15" d="M516,42.59a7.25,7.25,0,0,0-6.22,4.22A7.24,7.24,0,0,1,513,40.05a7.46,7.46,0,0,1,2.85,2.41A1.47,1.47,0,0,1,516,42.59Z" transform="translate(0)"/><path class="cls-15" d="M516.53,50.08a7.27,7.27,0,0,0-6.77-3.27,7.26,7.26,0,0,1,7.5-.55A7.6,7.6,0,0,1,516.53,50.08Z" transform="translate(0)"/><path class="cls-15" d="M510.31,54.31a7.24,7.24,0,0,0-.55-7.5A7.23,7.23,0,0,1,514,53,7.41,7.41,0,0,1,510.31,54.31Z" transform="translate(0)"/><path class="cls-15" d="M503.55,51a7.26,7.26,0,0,0,6.21-4.23,7.24,7.24,0,0,1-3.27,6.77,7.46,7.46,0,0,1-2.85-2.41Z" transform="translate(0)"/><path class="cls-13" d="M104.5,177a6.45,6.45,0,0,0,6.69-.49,6.45,6.45,0,0,1-5.55,3.77A6.71,6.71,0,0,1,104.5,177Z" transform="translate(0)"/><path class="cls-13" d="M107.42,171a6.46,6.46,0,0,0,3.77,5.55,6.45,6.45,0,0,1-6-2.92,6.74,6.74,0,0,1,2.15-2.55Z" transform="translate(0)"/><path class="cls-13" d="M114.12,170.5a6.48,6.48,0,0,0-2.93,6,6.49,6.49,0,0,1-.49-6.7A6.72,6.72,0,0,1,114.12,170.5Z" transform="translate(0)"/><path class="cls-13" d="M117.89,176.05a6.47,6.47,0,0,0-6.7.49,6.48,6.48,0,0,1,5.56-3.77A6.71,6.71,0,0,1,117.89,176.05Z" transform="translate(0)"/><path class="cls-13" d="M115,182.09a6.47,6.47,0,0,0-3.78-5.55,6.48,6.48,0,0,1,6,2.92,6.74,6.74,0,0,1-2.15,2.55Z" transform="translate(0)"/><path class="cls-13" d="M108.27,182.58a6.45,6.45,0,0,0,2.92-6,6.45,6.45,0,0,1,.49,6.7A6.71,6.71,0,0,1,108.27,182.58Z" transform="translate(0)"/><path class="cls-53" d="M105.15,173.62a6.45,6.45,0,0,0,6,2.92,6.45,6.45,0,0,1-6.69.49A6.7,6.7,0,0,1,105.15,173.62Z" transform="translate(0)"/><path class="cls-53" d="M110.7,169.84a6.49,6.49,0,0,0,.49,6.7,6.46,6.46,0,0,1-3.77-5.55A6.72,6.72,0,0,1,110.7,169.84Z" transform="translate(0)"/><path class="cls-53" d="M116.75,172.77a6.48,6.48,0,0,0-5.56,3.77,6.48,6.48,0,0,1,2.93-6,6.6,6.6,0,0,1,2.54,2.15Z" transform="translate(0)"/><path class="cls-53" d="M117.24,179.46a6.48,6.48,0,0,0-6-2.92,6.47,6.47,0,0,1,6.7-.49A6.81,6.81,0,0,1,117.24,179.46Z" transform="translate(0)"/><path class="cls-53" d="M111.68,183.24a6.45,6.45,0,0,0-.49-6.7,6.47,6.47,0,0,1,3.78,5.55A6.72,6.72,0,0,1,111.68,183.24Z" transform="translate(0)"/><path class="cls-53" d="M105.64,180.31a6.45,6.45,0,0,0,5.55-3.77,6.45,6.45,0,0,1-2.92,6,6.63,6.63,0,0,1-2.55-2.15A.83.83,0,0,0,105.64,180.31Z" transform="translate(0)"/><path class="cls-13" d="M535,230a6.49,6.49,0,0,0,6.7-.49,6.46,6.46,0,0,1-5.55,3.77A6.72,6.72,0,0,1,535,230Z" transform="translate(0)"/><path class="cls-13" d="M538,224a6.46,6.46,0,0,0,3.77,5.55,6.48,6.48,0,0,1-6-2.93,6.6,6.6,0,0,1,2.15-2.54Z" transform="translate(0)"/><path class="cls-13" d="M544.66,223.46a6.48,6.48,0,0,0-2.92,6,6.47,6.47,0,0,1-.49-6.7A6.81,6.81,0,0,1,544.66,223.46Z" transform="translate(0)"/><path class="cls-13" d="M548.44,229a6.47,6.47,0,0,0-6.7.49,6.49,6.49,0,0,1,5.55-3.78A6.76,6.76,0,0,1,548.44,229Z" transform="translate(0)"/><path class="cls-13" d="M545.51,235.06a6.45,6.45,0,0,0-3.77-5.55,6.48,6.48,0,0,1,6,2.92,6.67,6.67,0,0,1-2.16,2.55Z" transform="translate(0)"/><path class="cls-13" d="M538.82,235.55a6.45,6.45,0,0,0,2.92-6,6.45,6.45,0,0,1,.49,6.69A6.7,6.7,0,0,1,538.82,235.55Z" transform="translate(0)"/><path class="cls-53" d="M535.7,226.58a6.48,6.48,0,0,0,6,2.93,6.49,6.49,0,0,1-6.7.49A6.76,6.76,0,0,1,535.7,226.58Z" transform="translate(0)"/><path class="cls-53" d="M541.25,222.81a6.47,6.47,0,0,0,.49,6.7A6.46,6.46,0,0,1,538,224,6.62,6.62,0,0,1,541.25,222.81Z" transform="translate(0)"/><path class="cls-53" d="M547.29,225.73a6.49,6.49,0,0,0-5.55,3.78,6.48,6.48,0,0,1,2.92-6,6.67,6.67,0,0,1,2.55,2.16A.76.76,0,0,1,547.29,225.73Z" transform="translate(0)"/><path class="cls-53" d="M547.79,232.43a6.48,6.48,0,0,0-6-2.92,6.47,6.47,0,0,1,6.7-.49A6.81,6.81,0,0,1,547.79,232.43Z" transform="translate(0)"/><path class="cls-53" d="M542.23,236.2a6.45,6.45,0,0,0-.49-6.69,6.45,6.45,0,0,1,3.77,5.55A6.61,6.61,0,0,1,542.23,236.2Z" transform="translate(0)"/><path class="cls-53" d="M536.19,233.28a6.46,6.46,0,0,0,5.55-3.77,6.45,6.45,0,0,1-2.92,6,6.65,6.65,0,0,1-2.55-2.15Z" transform="translate(0)"/><path class="cls-13" d="M706.81,199.73a6.45,6.45,0,0,0,6.69-.49A6.45,6.45,0,0,1,708,203,6.71,6.71,0,0,1,706.81,199.73Z" transform="translate(0)"/><path class="cls-13" d="M709.73,193.69a6.48,6.48,0,0,0,3.77,5.55,6.45,6.45,0,0,1-6-2.92,6.74,6.74,0,0,1,2.15-2.55Z" transform="translate(0)"/><path class="cls-13" d="M716.43,193.2a6.48,6.48,0,0,0-2.93,6,6.49,6.49,0,0,1-.49-6.7A6.72,6.72,0,0,1,716.43,193.2Z" transform="translate(0)"/><path class="cls-13" d="M720.2,198.75a6.47,6.47,0,0,0-6.7.49,6.48,6.48,0,0,1,5.56-3.77A6.71,6.71,0,0,1,720.2,198.75Z" transform="translate(0)"/><path class="cls-13" d="M717.28,204.79a6.47,6.47,0,0,0-3.78-5.55,6.48,6.48,0,0,1,6,2.92,6.74,6.74,0,0,1-2.15,2.55Z" transform="translate(0)"/><path class="cls-13" d="M710.58,205.29a6.47,6.47,0,0,0,2.92-6,6.47,6.47,0,0,1,.5,6.7A6.82,6.82,0,0,1,710.58,205.29Z" transform="translate(0)"/><path class="cls-53" d="M707.46,196.32a6.45,6.45,0,0,0,6,2.92,6.45,6.45,0,0,1-6.69.49A6.7,6.7,0,0,1,707.46,196.32Z" transform="translate(0)"/><path class="cls-53" d="M713,192.54a6.49,6.49,0,0,0,.49,6.7,6.48,6.48,0,0,1-3.77-5.55A6.76,6.76,0,0,1,713,192.54Z" transform="translate(0)"/><path class="cls-53" d="M719.06,195.47a6.48,6.48,0,0,0-5.56,3.77,3.46,3.46,0,1,1,5.47-3.89Z" transform="translate(0)"/><path class="cls-53" d="M719.55,202.16a6.48,6.48,0,0,0-6-2.92,6.47,6.47,0,0,1,6.7-.49A6.7,6.7,0,0,1,719.55,202.16Z" transform="translate(0)"/><path class="cls-53" d="M714,205.94a6.47,6.47,0,0,0-.5-6.7,6.47,6.47,0,0,1,3.78,5.55A6.72,6.72,0,0,1,714,205.94Z" transform="translate(0)"/><path class="cls-53" d="M708,203a6.45,6.45,0,0,0,5.55-3.77,6.47,6.47,0,0,1-2.92,6,6.65,6.65,0,0,1-2.54-2.16Z" transform="translate(0)"/><path class="cls-13" d="M434.41,313.23a6.45,6.45,0,0,0,6.69-.49,6.45,6.45,0,0,1-5.55,3.77A6.61,6.61,0,0,1,434.41,313.23Z" transform="translate(0)"/><path class="cls-13" d="M437.33,307.19a6.46,6.46,0,0,0,3.77,5.55,6.45,6.45,0,0,1-6-2.92,6.65,6.65,0,0,1,2.15-2.55Z" transform="translate(0)"/><path class="cls-13" d="M444,306.7a6.48,6.48,0,0,0-2.93,6,6.48,6.48,0,0,1-.49-6.69A6.74,6.74,0,0,1,444,306.7Z" transform="translate(0)"/><path class="cls-13" d="M447.8,312.25a6.47,6.47,0,0,0-6.7.49,6.48,6.48,0,0,1,5.56-3.77A6.71,6.71,0,0,1,447.8,312.25Z" transform="translate(0)"/><path class="cls-13" d="M444.88,318.29a6.49,6.49,0,0,0-3.78-5.55,6.48,6.48,0,0,1,6,2.92,6.74,6.74,0,0,1-2.15,2.55Z" transform="translate(0)"/><path class="cls-13" d="M438.18,318.79a6.46,6.46,0,0,0,2.92-6.05,6.47,6.47,0,0,1,.49,6.7A6.81,6.81,0,0,1,438.18,318.79Z" transform="translate(0)"/><path class="cls-53" d="M435.06,309.82a6.45,6.45,0,0,0,6,2.92,6.45,6.45,0,0,1-6.69.49A6.7,6.7,0,0,1,435.06,309.82Z" transform="translate(0)"/><path class="cls-53" d="M440.61,306.05a6.48,6.48,0,0,0,.49,6.69,6.46,6.46,0,0,1-3.77-5.55A6.61,6.61,0,0,1,440.61,306.05Z" transform="translate(0)"/><path class="cls-53" d="M446.66,309a6.48,6.48,0,0,0-5.56,3.77,6.48,6.48,0,0,1,2.93-6,6.69,6.69,0,0,1,2.54,2.15Z" transform="translate(0)"/><path class="cls-53" d="M447.15,315.66a6.48,6.48,0,0,0-6-2.92,6.47,6.47,0,0,1,6.7-.49A6.81,6.81,0,0,1,447.15,315.66Z" transform="translate(0)"/><path class="cls-53" d="M441.59,319.44a6.47,6.47,0,0,0-.49-6.7,6.49,6.49,0,0,1,3.78,5.55A6.76,6.76,0,0,1,441.59,319.44Z" transform="translate(0)"/><path class="cls-53" d="M435.55,316.51a6.45,6.45,0,0,0,5.55-3.77,6.46,6.46,0,0,1-2.92,6.05,6.75,6.75,0,0,1-2.55-2.16A.83.83,0,0,0,435.55,316.51Z" transform="translate(0)"/><path class="cls-13" d="M285.34,238.32a6.47,6.47,0,0,0,6.7-.49,6.46,6.46,0,0,1-5.55,3.77A6.62,6.62,0,0,1,285.34,238.32Z" transform="translate(0)"/><path class="cls-13" d="M288.27,232.28a6.46,6.46,0,0,0,3.77,5.55,6.46,6.46,0,0,1-6.05-2.92,6.67,6.67,0,0,1,2.16-2.55Z" transform="translate(0)"/><path class="cls-13" d="M295,231.79a6.45,6.45,0,0,0-2.92,6,6.47,6.47,0,0,1-.49-6.7A6.71,6.71,0,0,1,295,231.79Z" transform="translate(0)"/><path class="cls-13" d="M298.73,237.34a6.45,6.45,0,0,0-6.69.49,6.46,6.46,0,0,1,5.55-3.77A6.61,6.61,0,0,1,298.73,237.34Z" transform="translate(0)"/><path class="cls-13" d="M295.81,243.38a6.46,6.46,0,0,0-3.77-5.55,6.47,6.47,0,0,1,6,2.92,6.65,6.65,0,0,1-2.15,2.55Z" transform="translate(0)"/><path class="cls-13" d="M289.12,243.87a6.46,6.46,0,0,0,2.92-6,6.47,6.47,0,0,1,.49,6.7A6.71,6.71,0,0,1,289.12,243.87Z" transform="translate(0)"/><path class="cls-53" d="M286,234.91a6.46,6.46,0,0,0,6.05,2.92,6.47,6.47,0,0,1-6.7.49A6.81,6.81,0,0,1,286,234.91Z" transform="translate(0)"/><path class="cls-53" d="M291.55,231.13a6.47,6.47,0,0,0,.49,6.7,6.46,6.46,0,0,1-3.77-5.55A6.72,6.72,0,0,1,291.55,231.13Z" transform="translate(0)"/><path class="cls-53" d="M297.59,234.06a6.46,6.46,0,0,0-5.55,3.77,6.45,6.45,0,0,1,2.92-6,6.56,6.56,0,0,1,2.55,2.15Z" transform="translate(0)"/><path class="cls-53" d="M298.08,240.75a6.47,6.47,0,0,0-6-2.92,6.45,6.45,0,0,1,6.69-.49A6.7,6.7,0,0,1,298.08,240.75Z" transform="translate(0)"/><path class="cls-53" d="M292.53,244.53a6.47,6.47,0,0,0-.49-6.7,6.46,6.46,0,0,1,3.77,5.55A6.72,6.72,0,0,1,292.53,244.53Z" transform="translate(0)"/><path class="cls-53" d="M286.49,241.6a6.46,6.46,0,0,0,5.55-3.77,6.46,6.46,0,0,1-2.92,6,6.56,6.56,0,0,1-2.55-2.15A.83.83,0,0,1,286.49,241.6Z" transform="translate(0)"/><path class="cls-16" d="M310.89,185.37a6.21,6.21,0,0,0,6.43-.47,6.18,6.18,0,0,1-5.33,3.62A6.43,6.43,0,0,1,310.89,185.37Z" transform="translate(0)"/><path class="cls-16" d="M313.7,179.56a6.21,6.21,0,0,0,3.62,5.34,6.23,6.23,0,0,1-5.8-2.81,6.37,6.37,0,0,1,2.06-2.45Z" transform="translate(0)"/><path class="cls-16" d="M320.13,179.09a6.23,6.23,0,0,0-2.81,5.81,6.23,6.23,0,0,1-.47-6.44A6.51,6.51,0,0,1,320.13,179.09Z" transform="translate(0)"/><path class="cls-16" d="M323.76,184.43a6.23,6.23,0,0,0-6.44.47,6.24,6.24,0,0,1,5.34-3.63A6.43,6.43,0,0,1,323.76,184.43Z" transform="translate(0)"/><path class="cls-16" d="M321,190.23a6.21,6.21,0,0,0-3.63-5.33,6.19,6.19,0,0,1,5.81,2.81,6.44,6.44,0,0,1-2.07,2.44Z" transform="translate(0)"/><path class="cls-16" d="M314.51,190.7a6.19,6.19,0,0,0,2.81-5.8,6.21,6.21,0,0,1,.47,6.43A6.43,6.43,0,0,1,314.51,190.7Z" transform="translate(0)"/><path class="cls-61" d="M311.52,182.09a6.23,6.23,0,0,0,5.8,2.81,6.21,6.21,0,0,1-6.43.47A6.41,6.41,0,0,1,311.52,182.09Z" transform="translate(0)"/><path class="cls-61" d="M316.85,178.46a6.23,6.23,0,0,0,.47,6.44,6.21,6.21,0,0,1-3.62-5.34A6.43,6.43,0,0,1,316.85,178.46Z" transform="translate(0)"/><path class="cls-61" d="M322.66,181.27a6.24,6.24,0,0,0-5.34,3.63,6.23,6.23,0,0,1,2.81-5.81,6.39,6.39,0,0,1,2.45,2.07Z" transform="translate(0)"/><path class="cls-61" d="M323.13,187.71a6.19,6.19,0,0,0-5.81-2.81,6.23,6.23,0,0,1,6.44-.47A6.53,6.53,0,0,1,323.13,187.71Z" transform="translate(0)"/><path class="cls-61" d="M317.79,191.33a6.21,6.21,0,0,0-.47-6.43,6.21,6.21,0,0,1,3.63,5.33A6.43,6.43,0,0,1,317.79,191.33Z" transform="translate(0)"/><path class="cls-61" d="M312,188.52a6.18,6.18,0,0,0,5.33-3.62,6.19,6.19,0,0,1-2.81,5.8,6.41,6.41,0,0,1-2.44-2.06A.83.83,0,0,1,312,188.52Z" transform="translate(0)"/><path class="cls-16" d="M604.54,127.19a6.21,6.21,0,0,0,6.43-.47,6.24,6.24,0,0,1-5.34,3.63A6.32,6.32,0,0,1,604.54,127.19Z" transform="translate(0)"/><path class="cls-16" d="M607.34,121.39a6.21,6.21,0,0,0,3.63,5.33,6.21,6.21,0,0,1-5.81-2.81,6.44,6.44,0,0,1,2.07-2.44Z" transform="translate(0)"/><path class="cls-16" d="M613.78,120.91a6.22,6.22,0,0,0-2.81,5.81,6.21,6.21,0,0,1-.47-6.43A6.53,6.53,0,0,1,613.78,120.91Z" transform="translate(0)"/><path class="cls-16" d="M617.4,126.25a6.21,6.21,0,0,0-6.43.47,6.18,6.18,0,0,1,5.33-3.62A6.43,6.43,0,0,1,617.4,126.25Z" transform="translate(0)"/><path class="cls-16" d="M614.59,132.06a6.21,6.21,0,0,0-3.62-5.34,6.22,6.22,0,0,1,5.81,2.81,6.47,6.47,0,0,1-2.07,2.45Z" transform="translate(0)"/><path class="cls-16" d="M608.16,132.53a6.21,6.21,0,0,0,2.81-5.81,6.23,6.23,0,0,1,.47,6.44A6.51,6.51,0,0,1,608.16,132.53Z" transform="translate(0)"/><path class="cls-61" d="M605.16,123.91a6.21,6.21,0,0,0,5.81,2.81,6.21,6.21,0,0,1-6.43.47A6.42,6.42,0,0,1,605.16,123.91Z" transform="translate(0)"/><path class="cls-61" d="M610.5,120.29a6.21,6.21,0,0,0,.47,6.43,6.21,6.21,0,0,1-3.63-5.33A6.43,6.43,0,0,1,610.5,120.29Z" transform="translate(0)"/><path class="cls-61" d="M616.3,123.1a6.18,6.18,0,0,0-5.33,3.62,6.22,6.22,0,0,1,2.81-5.81,6.53,6.53,0,0,1,2.44,2.07Z" transform="translate(0)"/><path class="cls-61" d="M616.78,129.53a6.22,6.22,0,0,0-5.81-2.81,6.21,6.21,0,0,1,6.43-.47A6.51,6.51,0,0,1,616.78,129.53Z" transform="translate(0)"/><path class="cls-61" d="M611.44,133.16a6.23,6.23,0,0,0-.47-6.44,6.21,6.21,0,0,1,3.62,5.34A6.39,6.39,0,0,1,611.44,133.16Z" transform="translate(0)"/><path class="cls-61" d="M605.63,130.35a6.24,6.24,0,0,0,5.34-3.63,6.21,6.21,0,0,1-2.81,5.81,6.47,6.47,0,0,1-2.45-2.07A.76.76,0,0,0,605.63,130.35Z" transform="translate(0)"/><path class="cls-16" d="M698.72,221.38a6.23,6.23,0,0,0,6.44-.47,6.24,6.24,0,0,1-5.34,3.63A6.43,6.43,0,0,1,698.72,221.38Z" transform="translate(0)"/><path class="cls-16" d="M701.53,215.58a6.24,6.24,0,0,0,3.63,5.33,6.21,6.21,0,0,1-5.81-2.81,6.54,6.54,0,0,1,2.07-2.45Z" transform="translate(0)"/><path class="cls-16" d="M708,215.1a6.21,6.21,0,0,0-2.8,5.81,6.21,6.21,0,0,1-.47-6.43A6.37,6.37,0,0,1,708,215.1Z" transform="translate(0)"/><path class="cls-16" d="M711.59,220.44a6.21,6.21,0,0,0-6.43.47,6.18,6.18,0,0,1,5.33-3.62A6.36,6.36,0,0,1,711.59,220.44Z" transform="translate(0)"/><path class="cls-16" d="M708.78,226.25a6.23,6.23,0,0,0-3.62-5.34,6.21,6.21,0,0,1,5.8,2.81,6.41,6.41,0,0,1-2.06,2.44Z" transform="translate(0)"/><path class="cls-16" d="M702.35,226.72a6.23,6.23,0,0,0,2.81-5.81,6.21,6.21,0,0,1,.47,6.43A6.4,6.4,0,0,1,702.35,226.72Z" transform="translate(0)"/><path class="cls-61" d="M699.35,218.1a6.21,6.21,0,0,0,5.81,2.81,6.23,6.23,0,0,1-6.44.47A6.51,6.51,0,0,1,699.35,218.1Z" transform="translate(0)"/><path class="cls-61" d="M704.69,214.48a6.21,6.21,0,0,0,.47,6.43,6.24,6.24,0,0,1-3.63-5.33A6.43,6.43,0,0,1,704.69,214.48Z" transform="translate(0)"/><path class="cls-61" d="M710.49,217.29a6.18,6.18,0,0,0-5.33,3.62,6.21,6.21,0,0,1,2.8-5.81,6.39,6.39,0,0,1,2.45,2.07Z" transform="translate(0)"/><path class="cls-61" d="M711,223.72a6.21,6.21,0,0,0-5.8-2.81,6.21,6.21,0,0,1,6.43-.47A6.41,6.41,0,0,1,711,223.72Z" transform="translate(0)"/><path class="cls-61" d="M705.63,227.34a6.21,6.21,0,0,0-.47-6.43,6.23,6.23,0,0,1,3.62,5.34A6.52,6.52,0,0,1,705.63,227.34Z" transform="translate(0)"/><path class="cls-61" d="M699.82,224.54a6.24,6.24,0,0,0,5.34-3.63,6.23,6.23,0,0,1-2.81,5.81,6.39,6.39,0,0,1-2.45-2.07A1,1,0,0,0,699.82,224.54Z" transform="translate(0)"/><path class="cls-16" d="M494.28,291.75a6.23,6.23,0,0,0,6.43-.48,6.21,6.21,0,0,1-5.33,3.63A6.43,6.43,0,0,1,494.28,291.75Z" transform="translate(0)"/><path class="cls-16" d="M497.09,285.94a6.2,6.2,0,0,0,3.62,5.33,6.2,6.2,0,0,1-5.8-2.8A6.37,6.37,0,0,1,497,286Z" transform="translate(0)"/><path class="cls-16" d="M503.52,285.47a6.23,6.23,0,0,0-2.81,5.8,6.21,6.21,0,0,1-.47-6.43A6.51,6.51,0,0,1,503.52,285.47Z" transform="translate(0)"/><path class="cls-16" d="M507.15,290.8a6.23,6.23,0,0,0-6.44.47,6.23,6.23,0,0,1,5.34-3.62A6.43,6.43,0,0,1,507.15,290.8Z" transform="translate(0)"/><path class="cls-16" d="M504.34,296.61a6.24,6.24,0,0,0-3.63-5.34,6.23,6.23,0,0,1,5.81,2.81,6.39,6.39,0,0,1-2.07,2.45Z" transform="translate(0)"/><path class="cls-16" d="M497.9,297.08a6.19,6.19,0,0,0,2.81-5.81,6.23,6.23,0,0,1,.47,6.44A6.53,6.53,0,0,1,497.9,297.08Z" transform="translate(0)"/><path class="cls-61" d="M494.91,288.47a6.2,6.2,0,0,0,5.8,2.8,6.23,6.23,0,0,1-6.43.48A6.41,6.41,0,0,1,494.91,288.47Z" transform="translate(0)"/><path class="cls-61" d="M500.24,284.84a6.21,6.21,0,0,0,.47,6.43,6.2,6.2,0,0,1-3.62-5.33A6.43,6.43,0,0,1,500.24,284.84Z" transform="translate(0)"/><path class="cls-61" d="M506.05,287.65a6.23,6.23,0,0,0-5.34,3.62,6.23,6.23,0,0,1,2.81-5.8,6.37,6.37,0,0,1,2.45,2.06Z" transform="translate(0)"/><path class="cls-61" d="M506.52,294.08a6.23,6.23,0,0,0-5.81-2.81,6.23,6.23,0,0,1,6.44-.47A6.51,6.51,0,0,1,506.52,294.08Z" transform="translate(0)"/><path class="cls-61" d="M501.18,297.71a6.23,6.23,0,0,0-.47-6.44,6.24,6.24,0,0,1,3.63,5.34A6.43,6.43,0,0,1,501.18,297.71Z" transform="translate(0)"/><path class="cls-61" d="M495.38,294.9a6.21,6.21,0,0,0,5.33-3.63,6.19,6.19,0,0,1-2.81,5.81,6.44,6.44,0,0,1-2.44-2.07A.44.44,0,0,1,495.38,294.9Z" transform="translate(0)"/><path class="cls-16" d="M63.23,168.19a6.21,6.21,0,0,0,6.43-.47,6.21,6.21,0,0,1-5.33,3.63A6.43,6.43,0,0,1,63.23,168.19Z" transform="translate(0)"/><path class="cls-16" d="M66,162.39a6.2,6.2,0,0,0,3.62,5.33,6.21,6.21,0,0,1-5.8-2.81,6.41,6.41,0,0,1,2.06-2.44Z" transform="translate(0)"/><path class="cls-16" d="M72.47,161.91a6.23,6.23,0,0,0-2.81,5.81,6.21,6.21,0,0,1-.47-6.43A6.51,6.51,0,0,1,72.47,161.91Z" transform="translate(0)"/><path class="cls-16" d="M76.1,167.25a6.23,6.23,0,0,0-6.44.47A6.21,6.21,0,0,1,75,164.1,6.39,6.39,0,0,1,76.1,167.25Z" transform="translate(0)"/><path class="cls-16" d="M73.29,173.06a6.24,6.24,0,0,0-3.63-5.34,6.21,6.21,0,0,1,5.81,2.81A6.47,6.47,0,0,1,73.4,173Z" transform="translate(0)"/><path class="cls-16" d="M66.85,173.53a6.19,6.19,0,0,0,2.81-5.81,6.22,6.22,0,0,1,.47,6.44A6.53,6.53,0,0,1,66.85,173.53Z" transform="translate(0)"/><path class="cls-61" d="M63.86,164.91a6.21,6.21,0,0,0,5.8,2.81,6.21,6.21,0,0,1-6.43.47A6.43,6.43,0,0,1,63.86,164.91Z" transform="translate(0)"/><path class="cls-61" d="M69.19,161.29a6.21,6.21,0,0,0,.47,6.43A6.2,6.2,0,0,1,66,162.39,6.43,6.43,0,0,1,69.19,161.29Z" transform="translate(0)"/><path class="cls-61" d="M75,164.1a6.21,6.21,0,0,0-5.34,3.62,6.23,6.23,0,0,1,2.81-5.81A6.48,6.48,0,0,1,74.92,164Z" transform="translate(0)"/><path class="cls-61" d="M75.47,170.53a6.21,6.21,0,0,0-5.81-2.81,6.23,6.23,0,0,1,6.44-.47A6.51,6.51,0,0,1,75.47,170.53Z" transform="translate(0)"/><path class="cls-61" d="M70.13,174.16a6.22,6.22,0,0,0-.47-6.44,6.24,6.24,0,0,1,3.63,5.34A6.43,6.43,0,0,1,70.13,174.16Z" transform="translate(0)"/><path class="cls-61" d="M64.33,171.35a6.21,6.21,0,0,0,5.33-3.63,6.19,6.19,0,0,1-2.81,5.81,6.44,6.44,0,0,1-2.44-2.07Z" transform="translate(0)"/><path class="cls-16" d="M133.79,345.5a6.21,6.21,0,0,0,6.43-.48,6.2,6.2,0,0,1-5.33,3.63A6.43,6.43,0,0,1,133.79,345.5Z" transform="translate(0)"/><path class="cls-16" d="M136.6,339.69a6.18,6.18,0,0,0,3.62,5.33,6.21,6.21,0,0,1-5.81-2.8,6.39,6.39,0,0,1,2.07-2.45Z" transform="translate(0)"/><path class="cls-16" d="M143,339.22a6.21,6.21,0,0,0-2.81,5.8,6.21,6.21,0,0,1-.47-6.43A6.51,6.51,0,0,1,143,339.22Z" transform="translate(0)"/><path class="cls-16" d="M146.66,344.55a6.22,6.22,0,0,0-6.44.47,6.23,6.23,0,0,1,5.34-3.62A6.43,6.43,0,0,1,146.66,344.55Z" transform="translate(0)"/><path class="cls-16" d="M143.85,350.36a6.24,6.24,0,0,0-3.63-5.34,6.23,6.23,0,0,1,5.81,2.81,6.39,6.39,0,0,1-2.07,2.45Z" transform="translate(0)"/><path class="cls-16" d="M137.41,350.83a6.21,6.21,0,0,0,2.81-5.81,6.23,6.23,0,0,1,.47,6.44A6.53,6.53,0,0,1,137.41,350.83Z" transform="translate(0)"/><path class="cls-61" d="M134.41,342.22a6.21,6.21,0,0,0,5.81,2.8,6.21,6.21,0,0,1-6.43.48A6.51,6.51,0,0,1,134.41,342.22Z" transform="translate(0)"/><path class="cls-61" d="M139.75,338.59a6.21,6.21,0,0,0,.47,6.43,6.18,6.18,0,0,1-3.62-5.33A6.39,6.39,0,0,1,139.75,338.59Z" transform="translate(0)"/><path class="cls-61" d="M145.56,341.4a6.23,6.23,0,0,0-5.34,3.62,6.21,6.21,0,0,1,2.81-5.8,6.38,6.38,0,0,1,2.45,2.07Z" transform="translate(0)"/><path class="cls-61" d="M146,347.83a6.23,6.23,0,0,0-5.81-2.81,6.22,6.22,0,0,1,6.44-.47A6.51,6.51,0,0,1,146,347.83Z" transform="translate(0)"/><path class="cls-61" d="M140.69,351.46a6.23,6.23,0,0,0-.47-6.44,6.24,6.24,0,0,1,3.63,5.34A6.43,6.43,0,0,1,140.69,351.46Z" transform="translate(0)"/><path class="cls-61" d="M134.89,348.65a6.2,6.2,0,0,0,5.33-3.63,6.21,6.21,0,0,1-2.81,5.81,6.35,6.35,0,0,1-2.44-2.07A.44.44,0,0,1,134.89,348.65Z" transform="translate(0)"/><polygon class="cls-41" points="288.85 278.21 290.57 287.47 299.91 286.25 291.63 290.75 295.68 299.25 288.85 292.77 282.01 299.25 286.06 290.75 277.78 286.25 287.13 287.47 288.85 278.21"/><path class="cls-19" d="M537.28,455.42c-7,3.95-16.08,5.64-30.72,5.88-14.42.24-24.75-2.65-35.25-5.84-2.55-.77-2.11.34-3.36.9-1.53.69-.26,2.26,2.85,3.27,7.35,2.4,9.71,22.94,35.19,23.66,24.92.7,20.32-17.13,32.57-23.73C543.29,457,542.33,452.58,537.28,455.42Z" transform="translate(0)"/><path class="cls-62" d="M537.24,456.5c-7,3.95-16.07,5.85-30.71,6.09-14.42.24-25.21-3.16-35.71-6.35-4.68-1.42-5.3.11.24,2.2,7.15,2.7,9.82,22.28,35,22.47,24.27.19,19-15.43,31.27-22C542.07,456.33,542.29,453.66,537.24,456.5Z" transform="translate(0)"/><path class="cls-19" d="M543.38,460.28c-2-5.09-5.21-5.88-9.23-6.8C539.21,452.54,544.08,453.85,543.38,460.28Z" transform="translate(0)"/><path class="cls-19" d="M474.46,455.38c-5.47-.06-7.8,2.7-9.8,6C464.47,456.28,468.78,452.29,474.46,455.38Z" transform="translate(0)"/><path class="cls-63" d="M523.47,475.69c-9.64-8.25-24.18-9.76-37.15-.86,4.5,3.42,10.65,6,19.75,6.08S520.19,478.8,523.47,475.69Z" transform="translate(0)"/><path class="cls-64" d="M519.56,478.43c-8.61-8-19.94-8.38-28.89-.89a34,34,0,0,0,15.4,3.37C512.19,481,516.44,480,519.56,478.43Z" transform="translate(0)"/><path class="cls-65" d="M516.3,427.73a25.9,25.9,0,0,1,27-1.79C540.17,420.08,524.37,415,516.3,427.73Z" transform="translate(0)"/><path class="cls-65" d="M487.29,427.73a25.9,25.9,0,0,0-27-1.79C463.42,420.08,479.22,415,487.29,427.73Z" transform="translate(0)"/><path class="cls-4" d="M526.43,460.57a95,95,0,0,1-19.9,2,87.29,87.29,0,0,1-22-2.49c4.41,4,10.83,7.21,21.59,7C518,466.83,523.24,464.1,526.43,460.57Z" transform="translate(0)"/><path class="cls-19" d="M302,450.48c-6.61,4.86-15.56,7.69-30.32,9.76-14.54,2-25.34.39-36.35-1.52-2.67-.47-2.09.6-3.28,1.32-1.47.89,0,2.32,3.29,3,7.71,1.5,24.56,21.79,38.5,19.52,12.5-2,18.4-19.83,30-28C308.25,451.33,306.73,447,302,450.48Z" transform="translate(0)"/><path class="cls-62" d="M302.07,451.57c-6.61,4.86-15.52,7.91-30.28,10-14.54,2-25.87-.07-36.88-2-4.91-.86-5.34.76.51,2.18,7.56,1.84,25.5,20.13,38.18,18.37,10.56-1.47,17.3-18,28.86-26.16C306.93,450.79,306.82,448.07,302.07,451.57Z" transform="translate(0)"/><path class="cls-63" d="M250.35,470.8c7.59,5.12,16.23,10.29,23.25,9.32,6.16-.86,11-6.83,16.3-13.28a42.36,42.36,0,0,0-15.41-3A44.21,44.21,0,0,0,250.35,470.8Z" transform="translate(0)"/><path class="cls-19" d="M308.75,454.62c-2.68-4.88-6-5.29-10.18-5.72C303.56,447.33,308.65,448,308.75,454.62Z" transform="translate(0)"/><path class="cls-19" d="M238.49,458.24c-5.55.62-7.55,3.7-9.17,7.24C228.5,460.39,232.35,455.83,238.49,458.24Z" transform="translate(0)"/><path class="cls-4" d="M240.69,460.56c5.7,8.58,48.32,4.65,54.38-4.93-5.77,2.62-13.14,4.5-23.28,5.92C259.77,463.23,250,462.08,240.69,460.56Z" transform="translate(0)"/><path class="cls-64" d="M286.86,470.51a28.14,28.14,0,0,0-13.49-3.45,29.85,29.85,0,0,0-18.84,6.47c6.47,4.05,13.31,7.39,19.07,6.59C278.56,479.43,282.68,475.42,286.86,470.51Z" transform="translate(0)"/><path class="cls-66" d="M236.86,428.37c2.12,0,3.85-3.71,3.85-8.26s-1.73-8.27-3.85-8.27-3.86,3.72-3.86,8.27S234.73,428.37,236.86,428.37Z" transform="translate(0)"/><path class="cls-66" d="M295.7,428.37c2.12,0,3.85-3.71,3.85-8.26s-1.73-8.27-3.85-8.27-3.86,3.72-3.86,8.27S293.57,428.37,295.7,428.37Z" transform="translate(0)"/></g></svg>